<?xml version="1.0" encoding="utf-8"?>
<!-- Generator: Adobe Illustrator 27.2.0, SVG Export Plug-In . SVG Version: 6.00 Build 0)  -->
<svg version="1.1" id="Layer_1" xmlns="http://www.w3.org/2000/svg" xmlns:xlink="http://www.w3.org/1999/xlink" x="0px" y="0px"
	 viewBox="0 0 5657 2082" style="enable-background:new 0 0 5657 2082;" xml:space="preserve">
<style type="text/css">
	.st0{fill-rule:evenodd;clip-rule:evenodd;}
	.st1{display:none;fill-rule:evenodd;clip-rule:evenodd;fill:#ECF0F1;}
	
		.st2{clip-path:url(#SVGID_00000094591740129443851220000017737067088535454376_);fill:url(#SVGID_00000155848619789078884010000003342003797841297572_);}
	
		.st3{clip-path:url(#SVGID_00000161590056800906120470000002112696478927029692_);fill:url(#SVGID_00000136390091921762567290000011688665730096819638_);}
	
		.st4{clip-path:url(#SVGID_00000031172256415216732530000005548187686330361755_);fill:url(#SVGID_00000176030568707934976870000009859538255542728591_);}
	
		.st5{clip-path:url(#SVGID_00000125601898195730728770000014780897083793684631_);fill:url(#SVGID_00000157303309621905568340000018312495106603932555_);}
	
		.st6{clip-path:url(#SVGID_00000172424871848244029180000003065562373220771465_);fill:url(#SVGID_00000005230007045260826250000013901252078904534443_);}
	
		.st7{clip-path:url(#SVGID_00000121958309555830106700000001301412609307738004_);fill:url(#SVGID_00000075864447763173841280000005650685616233558205_);}
	
		.st8{clip-path:url(#SVGID_00000183951310040905134880000009637064558510480044_);fill:url(#SVGID_00000065039097195523247930000002691322370512142477_);}
	
		.st9{clip-path:url(#SVGID_00000144339700213890729990000004373891059533822901_);fill:url(#SVGID_00000164482494998075191660000008087491292218627754_);}
	.st10{fill:#FFFFFF;}
</style>
<rect x="4" class="st0" width="5657" height="2082"/>
<path class="st1" d="M3500.65,1856.79v-63.67h47.13v10.76h-34.23v14.13h31.83v10.76h-31.83v17.26h35.48v10.76H3500.65z
	 M3392.38,1856.79v-63.67h12.48l26.2,42.67v-42.67h11.91v63.67h-12.88l-25.8-41.85v41.85H3392.38z M3323.18,1856.79v-63.67h12.9
	v63.67H3323.18z M3225.61,1856.79v-63.14h12.89v52.38h31.92v10.76H3225.61z M3141.64,1833.41v-10.76h27.66v25.4
	c-2.69,2.63-6.58,4.92-11.7,6.92c-5.1,1.99-10.27,2.98-15.51,2.98c-6.65,0-12.46-1.39-17.4-4.19c-4.94-2.81-8.66-6.82-11.15-12.03
	c-2.49-5.19-3.73-10.87-3.73-16.99c0-6.64,1.39-12.54,4.16-17.71c2.79-5.16,6.85-9.13,12.2-11.88c4.09-2.12,9.16-3.18,15.24-3.18
	c7.89,0,14.08,1.67,18.53,4.99c4.43,3.33,7.29,7.92,8.56,13.78l-12.8,2.41c-0.89-3.13-2.58-5.6-5.05-7.42
	c-2.47-1.82-5.55-2.72-9.26-2.72c-5.6,0-10.06,1.78-13.36,5.35c-3.3,3.57-4.96,8.86-4.96,15.87c0,7.57,1.67,13.25,5.02,17.03
	c3.36,3.78,7.75,5.67,13.19,5.67c2.68,0,5.38-0.54,8.08-1.58c2.71-1.05,5.02-2.34,6.97-3.86v-8.08H3141.64z M3037.55,1831.54
	l-8.85-23.57l-8.6,23.57H3037.55z M3061.11,1856.79h-13.89l-5.5-14.5h-25.54l-5.29,14.5h-13.64l24.72-63.67h13.62L3061.11,1856.79z
	 M2926.3,1856.79v-52.91h-18.85v-10.76h50.51v10.76h-18.77v52.91H2926.3z M2783.91,1856.79v-63.67h47.13v10.76h-34.24v14.13h31.84
	v10.76h-31.84v17.26h35.48v10.76H2783.91z M2665.6,1856.79v-63.67h19.32l11.41,43.43l11.28-43.43h19.36v63.67h-11.92l-0.04-50.12
	l-12.55,50.12h-12.39l-12.49-50.12l-0.05,50.12H2665.6z M2563.14,1824.92c0,7.22,1.67,12.69,5,16.42c3.33,3.72,7.57,5.59,12.71,5.59
	c5.13,0,9.35-1.86,12.65-5.54c3.29-3.7,4.93-9.24,4.93-16.65c0-7.3-1.6-12.76-4.81-16.35c-3.2-3.6-7.46-5.4-12.77-5.4
	c-5.31,0-9.59,1.82-12.84,5.45C2564.77,1812.09,2563.14,1817.57,2563.14,1824.92z M2549.89,1825.35c0-6.49,0.98-11.95,2.92-16.37
	c1.44-3.24,3.43-6.16,5.93-8.74c2.5-2.58,5.24-4.49,8.23-5.75c3.97-1.68,8.55-2.53,13.73-2.53c9.4,0,16.89,2.93,22.54,8.75
	c5.63,5.84,8.45,13.95,8.45,24.34c0,10.3-2.79,18.36-8.39,24.17c-5.58,5.82-13.07,8.73-22.43,8.73c-9.47,0-17.02-2.89-22.6-8.69
	C2552.69,1843.48,2549.89,1835.51,2549.89,1825.35z M2445.81,1836.17l12.54-1.25c0.75,4.2,2.26,7.26,4.57,9.24
	c2.29,1.97,5.4,2.95,9.29,2.95c4.12,0,7.23-0.88,9.32-2.63c2.09-1.75,3.14-3.79,3.14-6.14c0-1.51-0.44-2.78-1.32-3.85
	c-0.87-1.05-2.42-1.97-4.6-2.74c-1.5-0.53-4.91-1.45-10.24-2.79c-6.87-1.71-11.69-3.82-14.45-6.33c-3.9-3.51-5.84-7.8-5.84-12.85
	c0-3.25,0.91-6.3,2.74-9.13c1.84-2.83,4.48-4.98,7.93-6.46c3.45-1.48,7.6-2.23,12.49-2.23c7.96,0,13.96,1.77,17.97,5.32
	c4.04,3.54,6.14,8.25,6.35,14.16l-12.9,0.44c-0.55-3.28-1.71-5.64-3.51-7.08c-1.79-1.44-4.49-2.16-8.08-2.16
	c-3.7,0-6.61,0.78-8.7,2.32c-1.35,0.99-2.03,2.31-2.03,3.96c0,1.51,0.64,2.81,1.91,3.87c1.62,1.38,5.55,2.8,11.79,4.29
	c6.24,1.47,10.85,3.01,13.83,4.58c3,1.58,5.34,3.73,7.02,6.47c1.69,2.75,2.54,6.12,2.54,10.14c0,3.65-1.01,7.07-3.04,10.26
	c-2.03,3.19-4.9,5.56-8.6,7.1c-3.7,1.56-8.33,2.32-13.86,2.32c-8.05,0-14.23-1.85-18.54-5.57
	C2449.22,1848.67,2446.65,1843.26,2445.81,1836.17z M2345.82,1856.79v-63.67h47.13v10.76h-34.24v14.13h31.84v10.76h-31.84v17.26
	h35.48v10.76H2345.82z M2226.58,1856.79l-14.97-63.67h13.26l9.47,43.73l11.62-43.73h15.32l11.11,44.48l9.7-44.48h12.93l-15.34,63.67
	h-13.77l-12.54-47.6l-12.65,47.6H2226.58z M2148.26,1831.54l-8.85-23.57l-8.6,23.57H2148.26z M2171.82,1856.79h-13.89l-5.5-14.5
	h-25.54l-5.29,14.5h-13.64l24.72-63.67h13.62L2171.82,1856.79z"/>
<path class="st1" d="M3911.13,1653.28v-82.27c0-20.26,12.78-38.01,33.34-38.01c20.57,0,28.98,17.13,28.98,37.39v82.9h38.01v-82.9
	c0-46.12-21.5-72.91-65.12-72.91c-19.95,0-37.71,6.23-51.42,28.05c-8.73-21.19-27.11-28.67-45.5-28.67
	c-14.65,0-32.4,5.61-40.51,21.19l-2.81-18.7h-35.21v153.94h38.02v-82.27c0-20.26,12.16-38.64,32.72-38.64
	c20.88,0,31.47,18.38,31.47,38.64v82.27H3911.13z M3529.98,1499.65v80.72c0,47.67,26.8,75.41,63.57,75.41
	c21.5,0,36.15-7.48,52.04-23.06l2.49,20.57h33.97v-153.63h-37.71v78.38c0,23.52-15.89,43.16-39.26,43.16
	c-24.31,0-37.08-17.76-37.08-41.13v-80.4H3529.98z M3442.36,1515.55c-17.76-15.59-35.83-20.26-59.83-20.26
	c-28.05,0-64.82,12.46-64.82,47.98c0,34.9,34.59,45.5,63.57,47.68c21.82,1.25,30.54,5.61,30.54,16.21
	c0,11.21-13.4,18.69-27.73,18.38c-17.14-0.31-42.07-9.35-52.98-21.5l-18.7,27.11c22.44,23.37,46.74,27.41,71.05,27.41
	c43.94,0,66.06-23.37,66.06-50.48c0-40.82-36.77-47.37-65.75-49.23c-19.63-1.25-28.67-6.86-28.67-16.83
	c0-9.66,9.97-15.27,28.05-15.27c14.65,0,27.11,3.43,38.02,13.71L3442.36,1515.55z M3108.88,1717.47v-82.27
	c10.91,16.83,34.9,21.82,51.1,21.82c49.23,0,77.59-35.53,77.59-80.4c0-45.19-31.48-80.4-78.84-80.4c-17.44,0-38.01,7.48-49.86,24.62
	l-2.49-21.19h-35.53v217.82H3108.88z M3155.93,1620.25c-25.86,0-43.62-19.63-43.62-43.63c0-23.99,16.2-43.62,43.62-43.62
	c27.42,0,43.63,19.63,43.63,43.62C3199.55,1600.62,3181.8,1620.25,3155.93,1620.25z M2979.82,1653.28v-218.45H2939v218.45H2979.82z
	 M2678.75,1653.28v-82.27c0-20.26,12.77-38.01,33.34-38.01s28.98,17.13,28.98,37.39v82.9h38.01v-82.9
	c0-46.12-21.5-72.91-65.12-72.91c-19.95,0-37.7,6.23-51.42,28.05c-8.73-21.19-27.11-28.67-45.5-28.67
	c-14.65,0-32.4,5.61-40.51,21.19l-2.8-18.7h-35.21v153.94h38.02v-82.27c0-20.26,12.16-38.64,32.72-38.64
	c20.88,0,31.47,18.38,31.47,38.64v82.27H2678.75z M2337.8,1558.55c5.61-19.94,22.44-29.91,43-29.91c21.81,0,37.4,9.97,39.89,29.91
	H2337.8z M2457.14,1590.02c5.93-63.26-26.17-95.04-77.59-95.04c-49.86,0-81.64,33.66-81.64,80.4c0,49.23,31.47,81.96,84.45,81.96
	c23.38,0,49.86-8.11,66.07-24.93l-24.31-23.99c-8.72,9.04-27.11,14.33-41.13,14.33c-26.8,0-43.31-13.71-45.8-32.72H2457.14z
	 M2114.32,1499.65v153.63h38.02v-81.02c0-28.36,18.39-38.96,38.33-38.96c12.46,0,19.63,3.43,27.42,9.97l17.14-33.03
	c-8.42-8.41-23.68-14.64-39.58-14.64c-15.58,0-31.47,2.8-43.31,21.81l-2.8-17.76H2114.32z M1952.85,1531.13
	c25.55,0,41.76,22.43,41.76,45.5c0,23.37-14.02,45.18-41.76,45.18c-27.73,0-41.76-21.81-41.76-45.18
	C1911.09,1553.56,1925.43,1531.13,1952.85,1531.13z M1952.54,1496.54c-48.93,0-79.47,36.15-79.47,80.09
	c0,44.25,29.92,80.08,79.78,80.08c49.86,0,80.08-35.83,80.08-80.08C2032.93,1532.69,2001.46,1496.54,1952.54,1496.54z
	 M1645.54,1434.83v218.45h153.31v-38.02h-112.18v-180.43H1645.54z"/>
<g>
	<defs>
		<polygon id="SVGID_1_" points="1744.11,786.74 1591.36,939.5 1405.02,1125.85 1621.03,1125.85 2025.54,721.33 2137.09,832.89 
			2245.1,724.88 2025.54,505.31 		"/>
	</defs>
	<clipPath id="SVGID_00000121965077948110886360000015564866499615752589_">
		<use xlink:href="#SVGID_1_"  style="overflow:visible;"/>
	</clipPath>
	
		<linearGradient id="SVGID_00000050655668891125439460000007331729934396515224_" gradientUnits="userSpaceOnUse" x1="1759.7133" y1="537.6413" x2="1877.0549" y2="1036.7274">
		<stop  offset="0" style="stop-color:#FFFB90"/>
		<stop  offset="0.13" style="stop-color:#FBEC7A"/>
		<stop  offset="0.24" style="stop-color:#F8DC65"/>
		<stop  offset="0.33" style="stop-color:#C8A443"/>
		<stop  offset="0.49" style="stop-color:#996C22"/>
		<stop  offset="0.62" style="stop-color:#CAAA4D"/>
		<stop  offset="0.69" style="stop-color:#FBE878"/>
		<stop  offset="0.73" style="stop-color:#FDF491"/>
		<stop  offset="0.77" style="stop-color:#FFFFAA"/>
		<stop  offset="0.8" style="stop-color:#FDF491"/>
		<stop  offset="0.83" style="stop-color:#FBE878"/>
		<stop  offset="0.92" style="stop-color:#D0A549"/>
		<stop  offset="1" style="stop-color:#A4631B"/>
	</linearGradient>
	
		<rect x="1405.02" y="505.31" style="clip-path:url(#SVGID_00000121965077948110886360000015564866499615752589_);fill:url(#SVGID_00000050655668891125439460000007331729934396515224_);" width="840.09" height="620.54"/>
</g>
<g>
	<defs>
		<polygon id="SVGID_00000054951229738928207850000008322477826283106960_" points="3814.88,688.73 3990.93,864.79 4251.99,1125.85 
			4003.01,1125.85 3490.52,613.34 3361.95,741.92 3237.46,617.43 3490.52,364.36 		"/>
	</defs>
	<clipPath id="SVGID_00000164472197019411317840000011425451311253919385_">
		<use xlink:href="#SVGID_00000054951229738928207850000008322477826283106960_"  style="overflow:visible;"/>
	</clipPath>
	
		<linearGradient id="SVGID_00000139286192141544017940000015668637145146917522_" gradientUnits="userSpaceOnUse" x1="3823.9224" y1="407.7294" x2="3688.9019" y2="982.9091">
		<stop  offset="0" style="stop-color:#FFFB90"/>
		<stop  offset="0.13" style="stop-color:#FBEC7A"/>
		<stop  offset="0.24" style="stop-color:#F8DC65"/>
		<stop  offset="0.33" style="stop-color:#C8A443"/>
		<stop  offset="0.49" style="stop-color:#996C22"/>
		<stop  offset="0.62" style="stop-color:#CAAA4D"/>
		<stop  offset="0.69" style="stop-color:#FBE878"/>
		<stop  offset="0.73" style="stop-color:#FDF491"/>
		<stop  offset="0.77" style="stop-color:#FFFFAA"/>
		<stop  offset="0.8" style="stop-color:#FDF491"/>
		<stop  offset="0.83" style="stop-color:#FBE878"/>
		<stop  offset="0.92" style="stop-color:#D0A549"/>
		<stop  offset="1" style="stop-color:#A4631B"/>
	</linearGradient>
	
		<rect x="3237.46" y="364.36" style="clip-path:url(#SVGID_00000164472197019411317840000011425451311253919385_);fill:url(#SVGID_00000139286192141544017940000015668637145146917522_);" width="1014.52" height="761.49"/>
</g>
<g>
	<defs>
		<polygon id="SVGID_00000156583613804065465390000002995135248166396046_" points="2389.97,356.26 2170.13,356.26 2170.13,799.85 
			2389.97,580.01 		"/>
	</defs>
	<clipPath id="SVGID_00000122695156480056039320000018027862343062895266_">
		<use xlink:href="#SVGID_00000156583613804065465390000002995135248166396046_"  style="overflow:visible;"/>
	</clipPath>
	
		<linearGradient id="SVGID_00000168796714125397278620000000802907348807215540_" gradientUnits="userSpaceOnUse" x1="2011.4735" y1="222.7679" x2="2378.8711" y2="708.7871">
		<stop  offset="0" style="stop-color:#FFFB90"/>
		<stop  offset="0.13" style="stop-color:#FBEC7A"/>
		<stop  offset="0.24" style="stop-color:#F8DC65"/>
		<stop  offset="0.33" style="stop-color:#C8A443"/>
		<stop  offset="0.49" style="stop-color:#996C22"/>
		<stop  offset="0.62" style="stop-color:#CAAA4D"/>
		<stop  offset="0.69" style="stop-color:#FBE878"/>
		<stop  offset="0.73" style="stop-color:#FDF491"/>
		<stop  offset="0.77" style="stop-color:#FFFFAA"/>
		<stop  offset="0.8" style="stop-color:#FDF491"/>
		<stop  offset="0.83" style="stop-color:#FBE878"/>
		<stop  offset="0.92" style="stop-color:#D0A549"/>
		<stop  offset="1" style="stop-color:#A4631B"/>
	</linearGradient>
	
		<rect x="2170.13" y="356.26" style="clip-path:url(#SVGID_00000122695156480056039320000018027862343062895266_);fill:url(#SVGID_00000168796714125397278620000000802907348807215540_);" width="219.84" height="443.6"/>
</g>
<g>
	<defs>
		<polygon id="SVGID_00000059269279359870604570000012106745692460548746_" points="2389.97,580.01 2170.13,799.85 1844.14,1125.85 
			2155.05,1125.85 2795.01,485.87 3434.96,1125.85 3745.87,1125.85 2795.01,174.96 		"/>
	</defs>
	<clipPath id="SVGID_00000040556917117238936500000008450597448232351919_">
		<use xlink:href="#SVGID_00000059269279359870604570000012106745692460548746_"  style="overflow:visible;"/>
	</clipPath>
	
		<linearGradient id="SVGID_00000133527155285726864610000010294102424989883580_" gradientUnits="userSpaceOnUse" x1="2902.9326" y1="344.2098" x2="2649.804" y2="1062.3475">
		<stop  offset="0" style="stop-color:#FFFB90"/>
		<stop  offset="0.13" style="stop-color:#FBEC7A"/>
		<stop  offset="0.24" style="stop-color:#F8DC65"/>
		<stop  offset="0.33" style="stop-color:#C8A443"/>
		<stop  offset="0.49" style="stop-color:#996C22"/>
		<stop  offset="0.62" style="stop-color:#CAAA4D"/>
		<stop  offset="0.69" style="stop-color:#FBE878"/>
		<stop  offset="0.73" style="stop-color:#FDF491"/>
		<stop  offset="0.77" style="stop-color:#FFFFAA"/>
		<stop  offset="0.8" style="stop-color:#FDF491"/>
		<stop  offset="0.83" style="stop-color:#FBE878"/>
		<stop  offset="0.92" style="stop-color:#D0A549"/>
		<stop  offset="1" style="stop-color:#A4631B"/>
	</linearGradient>
	
		<rect x="1844.14" y="174.96" style="clip-path:url(#SVGID_00000040556917117238936500000008450597448232351919_);fill:url(#SVGID_00000133527155285726864610000010294102424989883580_);" width="1901.73" height="950.89"/>
</g>
<g>
	<defs>
		<rect id="SVGID_00000121995250730607612770000003697819747670366854_" x="2795.01" y="839.62" width="113.41" height="113.41"/>
	</defs>
	<clipPath id="SVGID_00000124856496891958435770000002690163202254670234_">
		<use xlink:href="#SVGID_00000121995250730607612770000003697819747670366854_"  style="overflow:visible;"/>
	</clipPath>
	
		<linearGradient id="SVGID_00000075848199232654087750000001087236893846735001_" gradientUnits="userSpaceOnUse" x1="2703.6597" y1="799.1643" x2="2892.9932" y2="923.4225">
		<stop  offset="0" style="stop-color:#FFFB90"/>
		<stop  offset="0.13" style="stop-color:#FBEC7A"/>
		<stop  offset="0.24" style="stop-color:#F8DC65"/>
		<stop  offset="0.33" style="stop-color:#C8A443"/>
		<stop  offset="0.49" style="stop-color:#996C22"/>
		<stop  offset="0.62" style="stop-color:#CAAA4D"/>
		<stop  offset="0.69" style="stop-color:#FBE878"/>
		<stop  offset="0.73" style="stop-color:#FDF491"/>
		<stop  offset="0.77" style="stop-color:#FFFFAA"/>
		<stop  offset="0.8" style="stop-color:#FDF491"/>
		<stop  offset="0.83" style="stop-color:#FBE878"/>
		<stop  offset="0.92" style="stop-color:#D0A549"/>
		<stop  offset="1" style="stop-color:#A4631B"/>
	</linearGradient>
	
		<rect x="2795.01" y="839.62" style="clip-path:url(#SVGID_00000124856496891958435770000002690163202254670234_);fill:url(#SVGID_00000075848199232654087750000001087236893846735001_);" width="113.41" height="113.41"/>
</g>
<g>
	<defs>
		<rect id="SVGID_00000016038033172015110870000013018104598286845099_" x="2656.62" y="839.62" width="113.41" height="113.41"/>
	</defs>
	<clipPath id="SVGID_00000149345254028085060390000006466324668498811033_">
		<use xlink:href="#SVGID_00000016038033172015110870000013018104598286845099_"  style="overflow:visible;"/>
	</clipPath>
	
		<linearGradient id="SVGID_00000114767490608707600710000014569725704649672879_" gradientUnits="userSpaceOnUse" x1="2565.3013" y1="799.1807" x2="2754.6348" y2="923.4389">
		<stop  offset="0" style="stop-color:#FFFB90"/>
		<stop  offset="0.13" style="stop-color:#FBEC7A"/>
		<stop  offset="0.24" style="stop-color:#F8DC65"/>
		<stop  offset="0.33" style="stop-color:#C8A443"/>
		<stop  offset="0.49" style="stop-color:#996C22"/>
		<stop  offset="0.62" style="stop-color:#CAAA4D"/>
		<stop  offset="0.69" style="stop-color:#FBE878"/>
		<stop  offset="0.73" style="stop-color:#FDF491"/>
		<stop  offset="0.77" style="stop-color:#FFFFAA"/>
		<stop  offset="0.8" style="stop-color:#FDF491"/>
		<stop  offset="0.83" style="stop-color:#FBE878"/>
		<stop  offset="0.92" style="stop-color:#D0A549"/>
		<stop  offset="1" style="stop-color:#A4631B"/>
	</linearGradient>
	
		<rect x="2656.62" y="839.62" style="clip-path:url(#SVGID_00000149345254028085060390000006466324668498811033_);fill:url(#SVGID_00000114767490608707600710000014569725704649672879_);" width="113.41" height="113.41"/>
</g>
<g>
	<defs>
		<rect id="SVGID_00000145060350622010218530000013446933857311687825_" x="2795.01" y="975.99" width="113.41" height="113.41"/>
	</defs>
	<clipPath id="SVGID_00000034061788755971870600000002822546880476408731_">
		<use xlink:href="#SVGID_00000145060350622010218530000013446933857311687825_"  style="overflow:visible;"/>
	</clipPath>
	
		<linearGradient id="SVGID_00000140715312357786780260000003843183401649728681_" gradientUnits="userSpaceOnUse" x1="2703.6284" y1="935.5133" x2="2892.9617" y2="1059.7712">
		<stop  offset="0" style="stop-color:#FFFB90"/>
		<stop  offset="0.13" style="stop-color:#FBEC7A"/>
		<stop  offset="0.24" style="stop-color:#F8DC65"/>
		<stop  offset="0.33" style="stop-color:#C8A443"/>
		<stop  offset="0.49" style="stop-color:#996C22"/>
		<stop  offset="0.62" style="stop-color:#CAAA4D"/>
		<stop  offset="0.69" style="stop-color:#FBE878"/>
		<stop  offset="0.73" style="stop-color:#FDF491"/>
		<stop  offset="0.77" style="stop-color:#FFFFAA"/>
		<stop  offset="0.8" style="stop-color:#FDF491"/>
		<stop  offset="0.83" style="stop-color:#FBE878"/>
		<stop  offset="0.92" style="stop-color:#D0A549"/>
		<stop  offset="1" style="stop-color:#A4631B"/>
	</linearGradient>
	
		<rect x="2795.01" y="975.99" style="clip-path:url(#SVGID_00000034061788755971870600000002822546880476408731_);fill:url(#SVGID_00000140715312357786780260000003843183401649728681_);" width="113.41" height="113.41"/>
</g>
<g>
	<defs>
		<rect id="SVGID_00000065032831964349114330000008496238833743792778_" x="2656.62" y="975.99" width="113.41" height="113.41"/>
	</defs>
	<clipPath id="SVGID_00000009566248483656280480000017100918552782419623_">
		<use xlink:href="#SVGID_00000065032831964349114330000008496238833743792778_"  style="overflow:visible;"/>
	</clipPath>
	
		<linearGradient id="SVGID_00000102531627358691613380000009141972432036179370_" gradientUnits="userSpaceOnUse" x1="2565.2703" y1="935.5298" x2="2754.6033" y2="1059.7877">
		<stop  offset="0" style="stop-color:#FFFB90"/>
		<stop  offset="0.13" style="stop-color:#FBEC7A"/>
		<stop  offset="0.24" style="stop-color:#F8DC65"/>
		<stop  offset="0.33" style="stop-color:#C8A443"/>
		<stop  offset="0.49" style="stop-color:#996C22"/>
		<stop  offset="0.62" style="stop-color:#CAAA4D"/>
		<stop  offset="0.69" style="stop-color:#FBE878"/>
		<stop  offset="0.73" style="stop-color:#FDF491"/>
		<stop  offset="0.77" style="stop-color:#FFFFAA"/>
		<stop  offset="0.8" style="stop-color:#FDF491"/>
		<stop  offset="0.83" style="stop-color:#FBE878"/>
		<stop  offset="0.92" style="stop-color:#D0A549"/>
		<stop  offset="1" style="stop-color:#A4631B"/>
	</linearGradient>
	
		<rect x="2656.62" y="975.99" style="clip-path:url(#SVGID_00000009566248483656280480000017100918552782419623_);fill:url(#SVGID_00000102531627358691613380000009141972432036179370_);" width="113.41" height="113.41"/>
</g>
<g>
	<path class="st10" d="M1457.85,1552.74l-8.54-22.46h-72.75l-8.54,22.95c-3.34,8.95-6.19,15-8.54,18.13
		c-2.36,3.13-6.23,4.7-11.6,4.7c-4.56,0-8.59-1.67-12.08-5c-3.5-3.34-5.25-7.12-5.25-11.35c0-2.44,0.41-4.96,1.22-7.57
		c0.81-2.6,2.16-6.23,4.03-10.86l45.78-116.21c1.3-3.34,2.87-7.34,4.7-12.02s3.78-8.56,5.86-11.66c2.08-3.09,4.8-5.59,8.18-7.51
		c3.38-1.91,7.55-2.87,12.51-2.87c5.04,0,9.26,0.96,12.63,2.87c3.38,1.91,6.1,4.38,8.18,7.39c2.08,3.01,3.82,6.25,5.25,9.7
		c1.42,3.46,3.23,8.08,5.43,13.86l46.75,115.48c3.66,8.79,5.49,15.18,5.49,19.17c0,4.15-1.73,7.96-5.19,11.41
		c-3.46,3.46-7.63,5.19-12.51,5.19c-2.85,0-5.29-0.51-7.32-1.53c-2.04-1.02-3.74-2.4-5.13-4.15c-1.38-1.75-2.87-4.43-4.46-8.06
		C1460.35,1558.7,1458.99,1555.5,1457.85,1552.74z M1386.07,1503.05h53.47l-26.98-73.85L1386.07,1503.05z"/>
	<path class="st10" d="M1735.39,1500.25v34.3c0,4.56-0.45,8.2-1.34,10.92c-0.9,2.73-2.54,5.19-4.94,7.39
		c-2.4,2.2-5.47,4.31-9.22,6.35c-10.82,5.86-21.24,10.13-31.25,12.82s-20.92,4.03-32.71,4.03c-13.75,0-26.29-2.12-37.6-6.35
		c-11.31-4.23-20.96-10.38-28.93-18.43c-7.98-8.06-14.1-17.82-18.37-29.3s-6.41-24.29-6.41-38.45c0-13.92,2.08-26.65,6.23-38.21
		c4.15-11.55,10.25-21.36,18.31-29.42s17.86-14.22,29.42-18.49c11.55-4.27,24.66-6.41,39.31-6.41c12.04,0,22.71,1.61,31.98,4.82
		c9.28,3.22,16.8,7.26,22.58,12.15c5.78,4.88,10.13,10.05,13.06,15.5c2.93,5.45,4.39,10.3,4.39,14.53c0,4.56-1.69,8.44-5.07,11.66
		c-3.38,3.21-7.43,4.82-12.15,4.82c-2.61,0-5.11-0.61-7.51-1.83c-2.4-1.22-4.42-2.93-6.04-5.13c-4.48-7-8.26-12.29-11.35-15.87
		c-3.09-3.58-7.26-6.59-12.51-9.03s-11.94-3.66-20.08-3.66c-8.38,0-15.87,1.45-22.46,4.33s-12.23,7.08-16.91,12.57
		c-4.68,5.49-8.26,12.23-10.74,20.2c-2.48,7.98-3.72,16.81-3.72,26.49c0,21,4.82,37.15,14.47,48.46
		c9.64,11.31,23.09,16.97,40.34,16.97c8.38,0,16.25-1.1,23.62-3.3c7.36-2.2,14.83-5.33,22.4-9.4v-29.05h-28.08
		c-6.76,0-11.86-1.02-15.32-3.05c-3.46-2.03-5.19-5.49-5.19-10.38c0-3.99,1.44-7.28,4.33-9.89c2.89-2.6,6.81-3.91,11.78-3.91h41.14
		c5.04,0,9.32,0.45,12.82,1.34c3.5,0.9,6.33,2.89,8.48,5.98C1734.31,1489.42,1735.39,1494.06,1735.39,1500.25z"/>
	<path class="st10" d="M1825.18,1499.02v-86.06c0-7.32,1.65-12.82,4.94-16.48s7.63-5.49,13-5.49c5.62,0,10.07,1.83,13.37,5.49
		s4.94,9.16,4.94,16.48v88.01c0,10.01,1.12,18.37,3.36,25.09c2.24,6.71,6.2,11.92,11.9,15.62c5.7,3.7,13.67,5.55,23.93,5.55
		c14.16,0,24.17-3.76,30.03-11.29c5.86-7.53,8.79-18.94,8.79-34.24v-88.75c0-7.4,1.63-12.92,4.88-16.54
		c3.25-3.62,7.61-5.43,13.06-5.43c5.45,0,9.87,1.81,13.24,5.43c3.38,3.62,5.07,9.14,5.07,16.54v86.06c0,14-1.36,25.68-4.09,35.03
		c-2.73,9.36-7.87,17.58-15.44,24.66c-6.51,6.02-14.08,10.42-22.71,13.18c-8.63,2.77-18.72,4.15-30.27,4.15
		c-13.75,0-25.59-1.49-35.52-4.46c-9.93-2.97-18.03-7.57-24.29-13.79c-6.27-6.23-10.86-14.2-13.79-23.93
		S1825.18,1512.53,1825.18,1499.02z"/>
	<path class="st10" d="M2171.92,1552.74l-8.54-22.46h-72.75l-8.54,22.95c-3.34,8.95-6.19,15-8.54,18.13
		c-2.36,3.13-6.23,4.7-11.6,4.7c-4.56,0-8.59-1.67-12.08-5c-3.5-3.34-5.25-7.12-5.25-11.35c0-2.44,0.41-4.96,1.22-7.57
		c0.81-2.6,2.16-6.23,4.03-10.86l45.78-116.21c1.3-3.34,2.87-7.34,4.7-12.02s3.78-8.56,5.86-11.66c2.08-3.09,4.8-5.59,8.18-7.51
		c3.38-1.91,7.55-2.87,12.51-2.87c5.04,0,9.26,0.96,12.63,2.87c3.38,1.91,6.1,4.38,8.18,7.39c2.08,3.01,3.82,6.25,5.25,9.7
		c1.42,3.46,3.23,8.08,5.43,13.86l46.75,115.48c3.66,8.79,5.49,15.18,5.49,19.17c0,4.15-1.73,7.96-5.19,11.41
		c-3.46,3.46-7.63,5.19-12.51,5.19c-2.85,0-5.29-0.51-7.32-1.53c-2.04-1.02-3.74-2.4-5.13-4.15c-1.38-1.75-2.87-4.43-4.46-8.06
		C2174.43,1558.7,2173.06,1555.5,2171.92,1552.74z M2100.15,1503.05h53.47l-26.98-73.85L2100.15,1503.05z"/>
	<path class="st10" d="M2432.19,1394.04h47.24c12.29,0,22.83,1.14,31.62,3.42c8.79,2.28,16.76,6.55,23.93,12.82
		c18.63,15.95,27.95,40.2,27.95,72.75c0,10.74-0.94,20.55-2.81,29.42c-1.87,8.87-4.76,16.87-8.67,23.99
		c-3.91,7.12-8.91,13.49-15.01,19.1c-4.8,4.31-10.05,7.77-15.75,10.38c-5.7,2.61-11.82,4.44-18.37,5.49
		c-6.55,1.06-13.94,1.59-22.16,1.59h-47.24c-6.59,0-11.56-1-14.89-2.99c-3.34-1.99-5.51-4.8-6.53-8.42
		c-1.02-3.62-1.53-8.32-1.53-14.1v-131.23c0-7.81,1.75-13.47,5.25-16.97C2418.72,1395.79,2424.38,1394.04,2432.19,1394.04z
		 M2446.23,1422.73v121.46h27.47c6.02,0,10.74-0.16,14.16-0.49c3.42-0.32,6.96-1.14,10.62-2.44c3.66-1.3,6.84-3.13,9.52-5.49
		c12.12-10.25,18.19-27.91,18.19-52.98c0-17.66-2.67-30.88-8-39.67c-5.33-8.79-11.9-14.38-19.71-16.79
		c-7.81-2.4-17.25-3.6-28.32-3.6H2446.23z"/>
	<path class="st10" d="M2728.53,1390.99c18.55,0,34.48,3.76,47.79,11.29s23.38,18.23,30.21,32.1c6.84,13.88,10.25,30.17,10.25,48.89
		c0,13.84-1.87,26.41-5.62,37.72c-3.74,11.31-9.36,21.12-16.85,29.42c-7.49,8.3-16.68,14.65-27.59,19.04
		c-10.91,4.39-23.4,6.59-37.48,6.59c-14,0-26.53-2.26-37.6-6.77c-11.07-4.52-20.31-10.88-27.71-19.1
		c-7.41-8.22-13-18.11-16.78-29.66c-3.78-11.55-5.68-24.05-5.68-37.48c0-13.75,1.97-26.37,5.92-37.84
		c3.95-11.47,9.66-21.24,17.15-29.3c7.49-8.06,16.6-14.22,27.34-18.49C2702.65,1393.13,2714.85,1390.99,2728.53,1390.99z
		 M2780.04,1483.03c0-13.1-2.12-24.45-6.35-34.06c-4.23-9.6-10.27-16.87-18.13-21.79c-7.85-4.92-16.87-7.39-27.04-7.39
		c-7.24,0-13.94,1.36-20.08,4.09c-6.15,2.73-11.43,6.7-15.87,11.9c-4.44,5.21-7.93,11.86-10.5,19.96s-3.85,17.19-3.85,27.28
		c0,10.17,1.28,19.37,3.85,27.59c2.56,8.22,6.18,15.04,10.86,20.45c4.68,5.41,10.05,9.46,16.11,12.15
		c6.06,2.69,12.71,4.03,19.96,4.03c9.28,0,17.8-2.32,25.57-6.96c7.77-4.64,13.96-11.8,18.55-21.48
		C2777.74,1509.12,2780.04,1497.19,2780.04,1483.03z"/>
	<path class="st10" d="M3096.7,1573h-54.69c-7.89,0-13.53-1.77-16.91-5.31c-3.38-3.54-5.07-9.17-5.07-16.91v-134.52
		c0-7.89,1.73-13.57,5.19-17.03c3.46-3.46,9.05-5.19,16.79-5.19H3100c8.54,0,15.95,0.53,22.22,1.59c6.27,1.06,11.88,3.09,16.85,6.1
		c4.23,2.52,7.97,5.72,11.23,9.58c3.25,3.87,5.74,8.14,7.45,12.82c1.71,4.68,2.56,9.62,2.56,14.83c0,17.9-8.95,31.01-26.86,39.31
		c23.52,7.49,35.28,22.05,35.28,43.7c0,10.01-2.56,19.02-7.69,27.04s-12.04,13.94-20.75,17.76c-5.45,2.28-11.72,3.89-18.8,4.82
		C3114.4,1572.53,3106.14,1573,3096.7,1573z M3056.3,1421.27v46.26h33.2c9.03,0,16.01-0.85,20.93-2.56s8.69-4.96,11.29-9.77
		c2.03-3.42,3.05-7.24,3.05-11.47c0-9.03-3.22-15.03-9.64-18c-6.43-2.97-16.24-4.46-29.42-4.46H3056.3z M3094.02,1493.53h-37.72
		v52.25h38.94c24.49,0,36.74-8.83,36.74-26.49c0-9.03-3.17-15.58-9.52-19.65C3116.11,1495.57,3106.63,1493.53,3094.02,1493.53z"/>
	<path class="st10" d="M3360.08,1552.74l-8.54-22.46h-72.75l-8.54,22.95c-3.34,8.95-6.19,15-8.54,18.13
		c-2.36,3.13-6.23,4.7-11.6,4.7c-4.56,0-8.59-1.67-12.08-5c-3.5-3.34-5.25-7.12-5.25-11.35c0-2.44,0.41-4.96,1.22-7.57
		c0.81-2.6,2.16-6.23,4.03-10.86l45.78-116.21c1.3-3.34,2.87-7.34,4.7-12.02c1.83-4.68,3.78-8.56,5.86-11.66
		c2.07-3.09,4.8-5.59,8.18-7.51c3.38-1.91,7.55-2.87,12.51-2.87c5.04,0,9.26,0.96,12.63,2.87c3.38,1.91,6.1,4.38,8.18,7.39
		c2.07,3.01,3.82,6.25,5.25,9.7c1.42,3.46,3.24,8.08,5.43,13.86l46.75,115.48c3.66,8.79,5.49,15.18,5.49,19.17
		c0,4.15-1.73,7.96-5.19,11.41c-3.46,3.46-7.63,5.19-12.51,5.19c-2.85,0-5.29-0.51-7.32-1.53c-2.04-1.02-3.74-2.4-5.13-4.15
		c-1.38-1.75-2.87-4.43-4.46-8.06C3362.58,1558.7,3361.22,1555.5,3360.08,1552.74z M3288.3,1503.05h53.47l-26.98-73.85
		L3288.3,1503.05z"/>
	<path class="st10" d="M3529.09,1496.46h-12.7v57.5c0,7.57-1.67,13.14-5,16.72c-3.34,3.58-7.69,5.37-13.06,5.37
		c-5.78,0-10.25-1.87-13.43-5.62s-4.76-9.24-4.76-16.48v-137.7c0-7.81,1.75-13.47,5.25-16.97c3.5-3.5,9.16-5.25,16.97-5.25h58.96
		c8.14,0,15.09,0.35,20.87,1.04c5.78,0.69,10.99,2.1,15.62,4.21c5.62,2.36,10.58,5.74,14.89,10.13c4.31,4.39,7.59,9.5,9.83,15.32
		s3.36,11.98,3.36,18.49c0,13.35-3.76,24.01-11.29,31.98c-7.53,7.98-18.94,13.63-34.24,16.97c6.43,3.42,12.57,8.46,18.43,15.14
		c5.86,6.67,11.09,13.77,15.69,21.3c4.6,7.53,8.18,14.32,10.74,20.39c2.56,6.06,3.85,10.23,3.85,12.51c0,2.36-0.75,4.7-2.26,7.02
		c-1.51,2.32-3.56,4.15-6.17,5.49c-2.61,1.34-5.62,2.01-9.03,2.01c-4.07,0-7.49-0.96-10.25-2.87c-2.77-1.91-5.15-4.33-7.14-7.26
		s-4.7-7.24-8.12-12.94l-14.53-24.17c-5.21-8.87-9.87-15.62-13.98-20.26s-8.28-7.81-12.51-9.52
		C3540.85,1497.32,3535.52,1496.46,3529.09,1496.46z M3549.84,1421.27h-33.45v49.19h32.47c8.71,0,16.03-0.75,21.97-2.26
		c5.94-1.51,10.48-4.07,13.61-7.69c3.13-3.62,4.7-8.61,4.7-14.95c0-4.96-1.26-9.34-3.78-13.12c-2.52-3.78-6.02-6.61-10.5-8.48
		C3570.64,1422.16,3562.29,1421.27,3549.84,1421.27z"/>
	<path class="st10" d="M3763.9,1496.46h-12.7v57.5c0,7.57-1.67,13.14-5,16.72c-3.34,3.58-7.69,5.37-13.06,5.37
		c-5.78,0-10.25-1.87-13.43-5.62s-4.76-9.24-4.76-16.48v-137.7c0-7.81,1.75-13.47,5.25-16.97c3.5-3.5,9.16-5.25,16.97-5.25h58.96
		c8.14,0,15.09,0.35,20.87,1.04c5.78,0.69,10.99,2.1,15.62,4.21c5.62,2.36,10.58,5.74,14.89,10.13c4.31,4.39,7.59,9.5,9.83,15.32
		s3.36,11.98,3.36,18.49c0,13.35-3.76,24.01-11.29,31.98c-7.53,7.98-18.94,13.63-34.24,16.97c6.43,3.42,12.57,8.46,18.43,15.14
		c5.86,6.67,11.09,13.77,15.69,21.3c4.6,7.53,8.18,14.32,10.74,20.39c2.56,6.06,3.85,10.23,3.85,12.51c0,2.36-0.75,4.7-2.26,7.02
		c-1.51,2.32-3.56,4.15-6.17,5.49c-2.61,1.34-5.62,2.01-9.03,2.01c-4.07,0-7.49-0.96-10.25-2.87c-2.77-1.91-5.15-4.33-7.14-7.26
		s-4.7-7.24-8.12-12.94l-14.53-24.17c-5.21-8.87-9.87-15.62-13.98-20.26s-8.28-7.81-12.51-9.52
		C3775.66,1497.32,3770.33,1496.46,3763.9,1496.46z M3784.65,1421.27h-33.45v49.19h32.47c8.71,0,16.03-0.75,21.97-2.26
		c5.94-1.51,10.48-4.07,13.61-7.69c3.13-3.62,4.7-8.61,4.7-14.95c0-4.96-1.26-9.34-3.78-13.12c-2.52-3.78-6.02-6.61-10.5-8.48
		C3805.45,1422.16,3797.1,1421.27,3784.65,1421.27z"/>
	<path class="st10" d="M3951.47,1553.96v-140.99c0-7.32,1.67-12.82,5-16.48c3.34-3.66,7.65-5.49,12.94-5.49
		c5.45,0,9.87,1.81,13.25,5.43c3.38,3.62,5.07,9.14,5.07,16.54v140.99c0,7.41-1.69,12.94-5.07,16.6c-3.38,3.66-7.79,5.49-13.25,5.49
		c-5.21,0-9.5-1.85-12.88-5.55C3953.16,1566.79,3951.47,1561.28,3951.47,1553.96z"/>
	<path class="st10" d="M4161.99,1390.99c18.55,0,34.49,3.76,47.79,11.29c13.31,7.53,23.38,18.23,30.21,32.1
		c6.84,13.88,10.25,30.17,10.25,48.89c0,13.84-1.87,26.41-5.62,37.72c-3.74,11.31-9.36,21.12-16.85,29.42
		c-7.49,8.3-16.68,14.65-27.59,19.04c-10.91,4.39-23.4,6.59-37.48,6.59c-14,0-26.53-2.26-37.6-6.77
		c-11.07-4.52-20.31-10.88-27.71-19.1c-7.41-8.22-13-18.11-16.79-29.66c-3.78-11.55-5.68-24.05-5.68-37.48
		c0-13.75,1.97-26.37,5.92-37.84s9.66-21.24,17.15-29.3c7.49-8.06,16.6-14.22,27.34-18.49
		C4136.11,1393.13,4148.32,1390.99,4161.99,1390.99z M4213.5,1483.03c0-13.1-2.12-24.45-6.35-34.06
		c-4.23-9.6-10.27-16.87-18.13-21.79s-16.87-7.39-27.04-7.39c-7.24,0-13.94,1.36-20.08,4.09c-6.14,2.73-11.43,6.7-15.87,11.9
		c-4.44,5.21-7.93,11.86-10.5,19.96c-2.56,8.1-3.84,17.19-3.84,27.28c0,10.17,1.28,19.37,3.84,27.59
		c2.56,8.22,6.18,15.04,10.87,20.45c4.68,5.41,10.05,9.46,16.11,12.15c6.06,2.69,12.71,4.03,19.96,4.03c9.28,0,17.8-2.32,25.57-6.96
		s13.96-11.8,18.55-21.48C4211.2,1509.12,4213.5,1497.19,4213.5,1483.03z"/>
</g>
<g>
	<path class="st10" d="M1346.98,1750.15c-3.15,0-5.85-0.97-8.09-2.91c-2.24-1.94-3.36-4.68-3.36-8.22c0-3.21,1.15-5.85,3.44-7.93
		c2.3-2.07,4.97-3.11,8.01-3.11c2.93,0,5.53,0.94,7.8,2.82c2.27,1.88,3.4,4.62,3.4,8.22c0,3.49-1.11,6.21-3.32,8.18
		C1352.65,1749.17,1350.02,1750.15,1346.98,1750.15z M1358.18,1773.56v65.49c0,4.54-1.08,7.97-3.24,10.29s-4.9,3.49-8.22,3.49
		s-6.02-1.19-8.09-3.57s-3.11-5.78-3.11-10.21v-64.83c0-4.48,1.04-7.86,3.11-10.13c2.08-2.27,4.77-3.4,8.09-3.4s6.06,1.13,8.22,3.4
		C1357.1,1766.37,1358.18,1769.52,1358.18,1773.56z"/>
	<path class="st10" d="M1580.68,1773.23v2.74c3.98-5.26,8.34-9.12,13.07-11.58c4.73-2.46,10.17-3.69,16.31-3.69
		c5.98,0,11.32,1.3,16.02,3.9c4.7,2.6,8.22,6.28,10.54,11.04c1.49,2.77,2.46,5.76,2.91,8.96c0.44,3.21,0.66,7.3,0.66,12.29v42.17
		c0,4.54-1.04,7.97-3.11,10.29s-4.77,3.49-8.09,3.49c-3.38,0-6.12-1.19-8.22-3.57c-2.1-2.38-3.15-5.78-3.15-10.21v-37.77
		c0-7.47-1.04-13.18-3.11-17.14c-2.08-3.96-6.21-5.94-12.41-5.94c-4.04,0-7.72,1.2-11.04,3.61c-3.32,2.41-5.76,5.71-7.3,9.92
		c-1.11,3.38-1.66,9.68-1.66,18.93v28.39c0,4.59-1.07,8.04-3.2,10.33c-2.13,2.29-4.88,3.44-8.26,3.44c-3.27,0-5.95-1.19-8.05-3.57
		c-2.1-2.38-3.15-5.78-3.15-10.21v-65.49c0-4.32,0.94-7.54,2.82-9.67c1.88-2.13,4.45-3.2,7.72-3.2c1.99,0,3.79,0.47,5.4,1.41
		c1.6,0.94,2.89,2.35,3.86,4.23C1580.19,1768.22,1580.68,1770.52,1580.68,1773.23z"/>
	<path class="st10" d="M1916.64,1808.43v30.13c0,4.76-1.08,8.33-3.24,10.71s-5.01,3.57-8.55,3.57c-3.43,0-6.21-1.19-8.34-3.57
		c-2.13-2.38-3.2-5.95-3.2-10.71v-36.11c0-5.7-0.19-10.13-0.58-13.28c-0.39-3.15-1.44-5.74-3.15-7.76
		c-1.72-2.02-4.43-3.03-8.13-3.03c-7.42,0-12.3,2.55-14.65,7.64c-2.35,5.09-3.53,12.4-3.53,21.91v30.63c0,4.7-1.07,8.26-3.2,10.67
		c-2.13,2.41-4.94,3.61-8.43,3.61c-3.43,0-6.24-1.2-8.43-3.61c-2.19-2.41-3.28-5.96-3.28-10.67v-64.83c0-4.26,0.98-7.5,2.95-9.71
		c1.96-2.21,4.55-3.32,7.76-3.32c3.1,0,5.69,1.04,7.76,3.11c2.08,2.08,3.11,4.94,3.11,8.59v2.16c3.93-4.7,8.13-8.16,12.62-10.38
		c4.48-2.21,9.46-3.32,14.94-3.32c5.7,0,10.6,1.13,14.69,3.4c4.09,2.27,7.47,5.7,10.13,10.29c3.82-4.65,7.91-8.09,12.29-10.33
		c4.37-2.24,9.21-3.36,14.53-3.36c6.2,0,11.54,1.22,16.02,3.65c4.48,2.44,7.83,5.92,10.04,10.46c1.94,4.1,2.91,10.54,2.91,19.34
		v44.24c0,4.76-1.08,8.33-3.24,10.71s-5.01,3.57-8.55,3.57c-3.43,0-6.24-1.2-8.43-3.61c-2.19-2.41-3.28-5.96-3.28-10.67v-38.1
		c0-4.87-0.21-8.77-0.62-11.7c-0.42-2.93-1.54-5.4-3.36-7.39s-4.59-2.99-8.3-2.99c-2.99,0-5.82,0.89-8.51,2.66
		c-2.68,1.77-4.77,4.15-6.27,7.14C1917.47,1791.99,1916.64,1798.74,1916.64,1808.43z"/>
	<path class="st10" d="M2255.02,1806.77c0,6.75-1.05,12.98-3.15,18.68c-2.1,5.7-5.15,10.6-9.13,14.69
		c-3.98,4.1-8.74,7.24-14.28,9.42c-5.53,2.18-11.76,3.28-18.68,3.28c-6.86,0-13.03-1.11-18.51-3.32s-10.22-5.38-14.24-9.5
		c-4.01-4.12-7.06-8.99-9.13-14.61c-2.08-5.62-3.11-11.83-3.11-18.63c0-6.86,1.05-13.14,3.15-18.84c2.1-5.7,5.12-10.57,9.05-14.61
		c3.93-4.04,8.69-7.15,14.28-9.34c5.59-2.18,11.76-3.28,18.51-3.28c6.86,0,13.09,1.11,18.68,3.32c5.59,2.21,10.38,5.37,14.36,9.46
		c3.98,4.1,7.01,8.96,9.09,14.61S2255.02,1799.96,2255.02,1806.77z M2232.27,1806.77c0-9.24-2.03-16.44-6.1-21.58
		s-9.53-7.72-16.39-7.72c-4.43,0-8.33,1.15-11.7,3.44c-3.38,2.3-5.98,5.69-7.8,10.17s-2.74,9.71-2.74,15.69
		c0,5.92,0.9,11.1,2.7,15.52c1.8,4.43,4.37,7.82,7.72,10.17c3.35,2.35,7.29,3.53,11.83,3.53c6.86,0,12.33-2.59,16.39-7.76
		C2230.24,1823.05,2232.27,1815.9,2232.27,1806.77z"/>
	<path class="st10" d="M2472.28,1739.94v34.61c4.26-4.43,8.6-7.82,13.03-10.17c4.43-2.35,9.91-3.53,16.44-3.53
		c7.53,0,14.12,1.78,19.8,5.35c5.67,3.57,10.07,8.74,13.2,15.52c3.13,6.78,4.69,14.82,4.69,24.11c0,6.86-0.87,13.16-2.61,18.88
		c-1.74,5.73-4.27,10.7-7.6,14.9c-3.32,4.21-7.35,7.46-12.08,9.75c-4.73,2.29-9.95,3.44-15.65,3.44c-3.49,0-6.77-0.42-9.84-1.25
		s-5.69-1.92-7.84-3.28c-2.16-1.35-4-2.75-5.52-4.19c-1.52-1.44-3.53-3.6-6.02-6.47v2.24c0,4.26-1.02,7.49-3.07,9.67
		c-2.05,2.18-4.65,3.28-7.8,3.28c-3.21,0-5.77-1.09-7.68-3.28c-1.91-2.19-2.86-5.41-2.86-9.67v-98.95c0-4.59,0.93-8.06,2.78-10.42
		c1.85-2.35,4.44-3.53,7.76-3.53c3.49,0,6.17,1.12,8.05,3.36C2471.34,1732.6,2472.28,1735.79,2472.28,1739.94z M2473.36,1807.26
		c0,9.02,2.06,15.95,6.18,20.79c4.12,4.84,9.53,7.26,16.23,7.26c5.7,0,10.61-2.48,14.73-7.43c4.12-4.95,6.18-12.05,6.18-21.29
		c0-5.98-0.86-11.12-2.57-15.44c-1.72-4.32-4.15-7.65-7.3-10c-3.15-2.35-6.83-3.53-11.04-3.53c-4.32,0-8.16,1.18-11.54,3.53
		c-3.38,2.35-6.03,5.76-7.97,10.21C2474.33,1795.82,2473.36,1801.12,2473.36,1807.26z"/>
	<path class="st10" d="M2747.57,1750.15c-3.15,0-5.85-0.97-8.09-2.91c-2.24-1.94-3.36-4.68-3.36-8.22c0-3.21,1.15-5.85,3.44-7.93
		c2.3-2.07,4.97-3.11,8.01-3.11c2.93,0,5.53,0.94,7.8,2.82c2.27,1.88,3.4,4.62,3.4,8.22c0,3.49-1.11,6.21-3.32,8.18
		C2753.24,1749.17,2750.61,1750.15,2747.57,1750.15z M2758.77,1773.56v65.49c0,4.54-1.08,7.97-3.24,10.29s-4.9,3.49-8.22,3.49
		s-6.02-1.19-8.09-3.57s-3.11-5.78-3.11-10.21v-64.83c0-4.48,1.04-7.86,3.11-10.13c2.08-2.27,4.77-3.4,8.09-3.4s6.06,1.13,8.22,3.4
		C2757.7,1766.37,2758.77,1769.52,2758.77,1773.56z"/>
	<path class="st10" d="M2960.68,1839.06v-98.28c0-4.54,1.01-7.97,3.03-10.29c2.02-2.32,4.74-3.49,8.18-3.49
		c3.43,0,6.2,1.15,8.3,3.44c2.1,2.3,3.15,5.74,3.15,10.33v98.28c0,4.59-1.07,8.04-3.2,10.33c-2.13,2.29-4.88,3.44-8.26,3.44
		c-3.32,0-6.02-1.19-8.09-3.57C2961.72,1846.89,2960.68,1843.48,2960.68,1839.06z"/>
	<path class="st10" d="M3196.71,1750.15c-3.15,0-5.85-0.97-8.09-2.91c-2.24-1.94-3.36-4.68-3.36-8.22c0-3.21,1.15-5.85,3.44-7.93
		c2.3-2.07,4.97-3.11,8.01-3.11c2.93,0,5.53,0.94,7.8,2.82c2.27,1.88,3.4,4.62,3.4,8.22c0,3.49-1.11,6.21-3.32,8.18
		C3202.38,1749.17,3199.75,1750.15,3196.71,1750.15z M3207.91,1773.56v65.49c0,4.54-1.08,7.97-3.24,10.29s-4.9,3.49-8.22,3.49
		s-6.02-1.19-8.09-3.57c-2.07-2.38-3.11-5.78-3.11-10.21v-64.83c0-4.48,1.04-7.86,3.11-10.13c2.08-2.27,4.77-3.4,8.09-3.4
		s6.06,1.13,8.22,3.4C3206.83,1766.37,3207.91,1769.52,3207.91,1773.56z"/>
	<path class="st10" d="M3467.1,1840.05c-5.48,4.26-10.78,7.46-15.9,9.59c-5.12,2.13-10.86,3.2-17.22,3.2
		c-5.81,0-10.92-1.15-15.31-3.44c-4.4-2.3-7.79-5.41-10.17-9.34c-2.38-3.93-3.57-8.19-3.57-12.78c0-6.2,1.96-11.48,5.89-15.85
		c3.93-4.37,9.32-7.3,16.19-8.8c1.44-0.33,5.01-1.08,10.71-2.24c5.7-1.16,10.58-2.23,14.65-3.2c4.07-0.97,8.48-2.14,13.24-3.53
		c-0.28-5.98-1.48-10.36-3.61-13.16c-2.13-2.79-6.54-4.19-13.24-4.19c-5.76,0-10.09,0.8-12.99,2.41c-2.91,1.61-5.4,4.01-7.47,7.22
		c-2.08,3.21-3.54,5.33-4.4,6.35c-0.86,1.02-2.7,1.54-5.52,1.54c-2.55,0-4.75-0.82-6.6-2.45c-1.85-1.63-2.78-3.72-2.78-6.27
		c0-3.98,1.41-7.86,4.23-11.62c2.82-3.76,7.22-6.86,13.2-9.3c5.98-2.43,13.42-3.65,22.33-3.65c9.96,0,17.79,1.18,23.49,3.53
		c5.7,2.35,9.72,6.07,12.08,11.16c2.35,5.09,3.53,11.84,3.53,20.25c0,5.31-0.01,9.82-0.04,13.53c-0.03,3.71-0.07,7.83-0.12,12.37
		c0,4.26,0.71,8.7,2.12,13.32c1.41,4.62,2.12,7.6,2.12,8.92c0,2.32-1.09,4.44-3.28,6.35c-2.19,1.91-4.66,2.86-7.43,2.86
		c-2.32,0-4.62-1.09-6.89-3.28C3472.05,1847.37,3469.64,1844.2,3467.1,1840.05z M3465.6,1807.26c-3.32,1.22-8.15,2.5-14.49,3.86
		c-6.34,1.36-10.72,2.35-13.16,2.99c-2.44,0.64-4.76,1.88-6.97,3.74c-2.21,1.85-3.32,4.44-3.32,7.76c0,3.43,1.3,6.35,3.9,8.76
		c2.6,2.41,6,3.61,10.21,3.61c4.48,0,8.62-0.98,12.41-2.95c3.79-1.96,6.57-4.5,8.34-7.59c2.05-3.43,3.07-9.08,3.07-16.93V1807.26z"
		/>
	<path class="st10" d="M3711.84,1820.13v18.93c0,4.59-1.08,8.04-3.24,10.33c-2.16,2.29-4.9,3.44-8.22,3.44
		c-3.27,0-5.95-1.16-8.05-3.49c-2.1-2.32-3.15-5.75-3.15-10.29v-63.09c0-10.18,3.68-15.27,11.04-15.27c3.76,0,6.47,1.19,8.13,3.57
		c1.66,2.38,2.57,5.89,2.74,10.54c2.71-4.65,5.49-8.16,8.34-10.54c2.85-2.38,6.65-3.57,11.41-3.57c4.76,0,9.38,1.19,13.86,3.57
		c4.48,2.38,6.72,5.53,6.72,9.46c0,2.77-0.95,5.05-2.86,6.85c-1.91,1.8-3.97,2.7-6.18,2.7c-0.83,0-2.84-0.51-6.02-1.54
		c-3.18-1.02-5.99-1.54-8.43-1.54c-3.32,0-6.03,0.87-8.13,2.62c-2.1,1.74-3.74,4.33-4.9,7.76c-1.16,3.43-1.96,7.51-2.41,12.24
		C3712.06,1807.55,3711.84,1813.32,3711.84,1820.13z"/>
	<path class="st10" d="M3953.75,1750.15c-3.15,0-5.85-0.97-8.09-2.91c-2.24-1.94-3.36-4.68-3.36-8.22c0-3.21,1.15-5.85,3.44-7.93
		c2.3-2.07,4.97-3.11,8.01-3.11c2.93,0,5.53,0.94,7.8,2.82c2.27,1.88,3.4,4.62,3.4,8.22c0,3.49-1.11,6.21-3.32,8.18
		C3959.43,1749.17,3956.8,1750.15,3953.75,1750.15z M3964.96,1773.56v65.49c0,4.54-1.08,7.97-3.24,10.29s-4.9,3.49-8.22,3.49
		s-6.02-1.19-8.09-3.57c-2.07-2.38-3.11-5.78-3.11-10.21v-64.83c0-4.48,1.04-7.86,3.11-10.13c2.08-2.27,4.77-3.4,8.09-3.4
		s6.06,1.13,8.22,3.4C3963.88,1766.37,3964.96,1769.52,3964.96,1773.56z"/>
	<path class="st10" d="M4224.14,1840.05c-5.48,4.26-10.78,7.46-15.9,9.59c-5.12,2.13-10.86,3.2-17.22,3.2
		c-5.81,0-10.92-1.15-15.31-3.44c-4.4-2.3-7.79-5.41-10.17-9.34c-2.38-3.93-3.57-8.19-3.57-12.78c0-6.2,1.96-11.48,5.89-15.85
		c3.93-4.37,9.32-7.3,16.19-8.8c1.44-0.33,5.01-1.08,10.71-2.24c5.7-1.16,10.58-2.23,14.65-3.2c4.07-0.97,8.48-2.14,13.24-3.53
		c-0.28-5.98-1.48-10.36-3.61-13.16c-2.13-2.79-6.54-4.19-13.24-4.19c-5.76,0-10.09,0.8-12.99,2.41c-2.91,1.61-5.4,4.01-7.47,7.22
		c-2.08,3.21-3.54,5.33-4.4,6.35c-0.86,1.02-2.7,1.54-5.52,1.54c-2.55,0-4.75-0.82-6.6-2.45c-1.85-1.63-2.78-3.72-2.78-6.27
		c0-3.98,1.41-7.86,4.23-11.62c2.82-3.76,7.22-6.86,13.2-9.3c5.98-2.43,13.42-3.65,22.33-3.65c9.96,0,17.79,1.18,23.49,3.53
		c5.7,2.35,9.72,6.07,12.08,11.16c2.35,5.09,3.53,11.84,3.53,20.25c0,5.31-0.01,9.82-0.04,13.53c-0.03,3.71-0.07,7.83-0.12,12.37
		c0,4.26,0.71,8.7,2.12,13.32c1.41,4.62,2.12,7.6,2.12,8.92c0,2.32-1.09,4.44-3.28,6.35c-2.19,1.91-4.66,2.86-7.43,2.86
		c-2.32,0-4.62-1.09-6.89-3.28C4229.1,1847.37,4226.69,1844.2,4224.14,1840.05z M4222.65,1807.26c-3.32,1.22-8.15,2.5-14.49,3.86
		c-6.34,1.36-10.72,2.35-13.16,2.99c-2.44,0.64-4.76,1.88-6.97,3.74c-2.21,1.85-3.32,4.44-3.32,7.76c0,3.43,1.3,6.35,3.9,8.76
		c2.6,2.41,6,3.61,10.21,3.61c4.48,0,8.62-0.98,12.41-2.95c3.79-1.96,6.57-4.5,8.34-7.59c2.05-3.43,3.07-9.08,3.07-16.93V1807.26z"
		/>
</g>
</svg>
