<?xml version="1.0" encoding="utf-8"?>
<!-- Generator: Adobe Illustrator 27.2.0, SVG Export Plug-In . SVG Version: 6.00 Build 0)  -->
<svg version="1.1" xmlns="http://www.w3.org/2000/svg" xmlns:xlink="http://www.w3.org/1999/xlink" x="0px" y="0px"
	 viewBox="0 0 1777 914" style="enable-background:new 0 0 1777 914;" xml:space="preserve">
<style type="text/css">
	.st0{display:none;fill-rule:evenodd;clip-rule:evenodd;}
	.st1{display:none;fill-rule:evenodd;clip-rule:evenodd;fill:#ECF0F1;}
	.st2{opacity:0.1;}
	.st3{fill-rule:evenodd;clip-rule:evenodd;}
	.st4{clip-path:url(#SVGID_00000058553382188251313810000017038901647256061349_);}
	.st5{clip-path:url(#SVGID_00000113355122322899122090000002771786180108849067_);}
	.st6{clip-path:url(#SVGID_00000122716569991960407360000003086056405674005159_);}
	.st7{clip-path:url(#SVGID_00000080892351614344219380000013066501684204410003_);}
	.st8{clip-path:url(#SVGID_00000127013750232839608280000011099181912471568270_);}
	.st9{clip-path:url(#SVGID_00000067218522789510804020000000437542029246701198_);}
	.st10{clip-path:url(#SVGID_00000147899905621978975010000002875504671544873644_);}
	.st11{clip-path:url(#SVGID_00000129194397441115990450000010173076479170586765_);}
	.st12{display:none;}
	.st13{display:inline;fill:#000333;}
	.st14{display:inline;}
	.st15{fill-rule:evenodd;clip-rule:evenodd;fill:#E6C409;}
	.st16{clip-path:url(#SVGID_00000039115151857352686980000001499856533118694815_);fill:#E6C409;}
	.st17{clip-path:url(#SVGID_00000152252861730852412690000017838424064515486621_);fill:#E6C409;}
	.st18{clip-path:url(#SVGID_00000086667690075501671160000011871657962238551971_);fill:#E6C409;}
	.st19{clip-path:url(#SVGID_00000011017268132885441350000011642641877615224202_);fill:#E6C409;}
	.st20{clip-path:url(#SVGID_00000124121152032525331340000008091042204547566749_);fill:#E6C409;}
	.st21{clip-path:url(#SVGID_00000051361285710335490520000016360604767210521229_);fill:#E6C409;}
	.st22{clip-path:url(#SVGID_00000028315783607405079820000010636566467599937162_);fill:#E6C409;}
	.st23{clip-path:url(#SVGID_00000181082339523186653720000008104065812996053181_);fill:#E6C409;}
</style>
<g id="Layer_1">
	<rect x="-156" y="0" class="st0" width="5657" height="2082"/>
	<path class="st1" d="M3340.6,1856.8v-63.7h47.1v10.8h-34.2v14.1h31.8v10.8h-31.8v17.3h35.5v10.8h-48.4L3340.6,1856.8L3340.6,1856.8
		z M3232.4,1856.8v-63.7h12.5l26.2,42.7v-42.7h11.9v63.7h-12.9l-25.8-41.8v41.8H3232.4z M3163.2,1856.8v-63.7h12.9v63.7H3163.2z
		 M3065.6,1856.8v-63.1h12.9v52.4h31.9v10.8h-44.8L3065.6,1856.8L3065.6,1856.8z M2981.6,1833.4v-10.8h27.7v25.4
		c-2.7,2.6-6.6,4.9-11.7,6.9c-5.1,2-10.3,3-15.5,3c-6.6,0-12.5-1.4-17.4-4.2c-4.9-2.8-8.7-6.8-11.1-12c-2.5-5.2-3.7-10.9-3.7-17
		c0-6.6,1.4-12.5,4.2-17.7s6.9-9.1,12.2-11.9c4.1-2.1,9.2-3.2,15.2-3.2c7.9,0,14.1,1.7,18.5,5s7.3,7.9,8.6,13.8l-12.8,2.4
		c-0.9-3.1-2.6-5.6-5.1-7.4s-5.6-2.7-9.3-2.7c-5.6,0-10.1,1.8-13.4,5.3s-5,8.9-5,15.9c0,7.6,1.7,13.2,5,17c3.4,3.8,7.8,5.7,13.2,5.7
		c2.7,0,5.4-0.5,8.1-1.6c2.7-1.1,5-2.3,7-3.9v-8.1L2981.6,1833.4L2981.6,1833.4z M2877.6,1831.5l-8.9-23.6l-8.6,23.6H2877.6z
		 M2901.1,1856.8h-13.9l-5.5-14.5h-25.5l-5.3,14.5h-13.6l24.7-63.7h13.6L2901.1,1856.8z M2766.3,1856.8v-52.9h-18.9v-10.8h50.5v10.8
		h-18.8v52.9H2766.3z M2623.9,1856.8v-63.7h47.1v10.8h-34.2v14.1h31.8v10.8h-31.8v17.3h35.5v10.8h-48.4L2623.9,1856.8L2623.9,1856.8
		z M2505.6,1856.8v-63.7h19.3l11.4,43.4l11.3-43.4h19.4v63.7h-11.9v-50.1l-12.6,50.1h-12.4l-12.5-50.1l-0.1,50.1H2505.6z
		 M2403.1,1824.9c0,7.2,1.7,12.7,5,16.4c3.3,3.7,7.6,5.6,12.7,5.6c5.1,0,9.4-1.9,12.6-5.5c3.3-3.7,4.9-9.2,4.9-16.7
		c0-7.3-1.6-12.8-4.8-16.3c-3.2-3.6-7.5-5.4-12.8-5.4s-9.6,1.8-12.8,5.4C2404.8,1812.1,2403.1,1817.6,2403.1,1824.9z M2389.9,1825.3
		c0-6.5,1-11.9,2.9-16.4c1.4-3.2,3.4-6.2,5.9-8.7s5.2-4.5,8.2-5.8c4-1.7,8.6-2.5,13.7-2.5c9.4,0,16.9,2.9,22.5,8.8
		c5.6,5.8,8.4,13.9,8.4,24.3c0,10.3-2.8,18.4-8.4,24.2c-5.6,5.8-13.1,8.7-22.4,8.7c-9.5,0-17-2.9-22.6-8.7
		C2392.7,1843.5,2389.9,1835.5,2389.9,1825.3z M2285.8,1836.2l12.5-1.2c0.8,4.2,2.3,7.3,4.6,9.2c2.3,2,5.4,2.9,9.3,2.9
		c4.1,0,7.2-0.9,9.3-2.6s3.1-3.8,3.1-6.1c0-1.5-0.4-2.8-1.3-3.8c-0.9-1.1-2.4-2-4.6-2.7c-1.5-0.5-4.9-1.4-10.2-2.8
		c-6.9-1.7-11.7-3.8-14.4-6.3c-3.9-3.5-5.8-7.8-5.8-12.8c0-3.2,0.9-6.3,2.7-9.1c1.8-2.8,4.5-5,7.9-6.5s7.6-2.2,12.5-2.2
		c8,0,14,1.8,18,5.3s6.1,8.2,6.4,14.2l-12.9,0.4c-0.6-3.3-1.7-5.6-3.5-7.1c-1.8-1.4-4.5-2.2-8.1-2.2c-3.7,0-6.6,0.8-8.7,2.3
		c-1.4,1-2,2.3-2,4c0,1.5,0.6,2.8,1.9,3.9c1.6,1.4,5.6,2.8,11.8,4.3s10.9,3,13.8,4.6c3,1.6,5.3,3.7,7,6.5s2.5,6.1,2.5,10.1
		c0,3.7-1,7.1-3,10.3c-2,3.2-4.9,5.6-8.6,7.1c-3.7,1.6-8.3,2.3-13.9,2.3c-8.1,0-14.2-1.8-18.5-5.6
		C2289.2,1848.7,2286.6,1843.3,2285.8,1836.2z M2185.8,1856.8v-63.7h47.1v10.8h-34.2v14.1h31.8v10.8h-31.8v17.3h35.5v10.8h-48.4
		L2185.8,1856.8L2185.8,1856.8z M2066.6,1856.8l-15-63.7h13.3l9.5,43.7l11.6-43.7h15.3l11.1,44.5l9.7-44.5h12.9l-15.3,63.7h-13.8
		l-12.5-47.6l-12.6,47.6H2066.6z M1988.3,1831.5l-8.8-23.6l-8.6,23.6H1988.3z M2011.8,1856.8h-13.9l-5.5-14.5h-25.5l-5.3,14.5H1948
		l24.7-63.7h13.6L2011.8,1856.8z"/>
	<path class="st1" d="M3751.1,1653.3V1571c0-20.3,12.8-38,33.3-38c20.6,0,29,17.1,29,37.4v82.9h38v-82.9c0-46.1-21.5-72.9-65.1-72.9
		c-19.9,0-37.7,6.2-51.4,28.1c-8.7-21.2-27.1-28.7-45.5-28.7c-14.6,0-32.4,5.6-40.5,21.2l-2.8-18.7h-35.2v153.9h38V1571
		c0-20.3,12.2-38.6,32.7-38.6c20.9,0,31.5,18.4,31.5,38.6v82.3H3751.1L3751.1,1653.3z M3370,1499.7v80.7c0,47.7,26.8,75.4,63.6,75.4
		c21.5,0,36.1-7.5,52-23.1l2.5,20.6h34v-153.6h-37.7v78.4c0,23.5-15.9,43.2-39.3,43.2c-24.3,0-37.1-17.8-37.1-41.1v-80.4
		L3370,1499.7L3370,1499.7z M3282.4,1515.6c-17.8-15.6-35.8-20.3-59.8-20.3c-28.1,0-64.8,12.5-64.8,48c0,34.9,34.6,45.5,63.6,47.7
		c21.8,1.2,30.5,5.6,30.5,16.2c0,11.2-13.4,18.7-27.7,18.4c-17.1-0.3-42.1-9.3-53-21.5l-18.7,27.1c22.4,23.4,46.7,27.4,71.1,27.4
		c43.9,0,66.1-23.4,66.1-50.5c0-40.8-36.8-47.4-65.8-49.2c-19.6-1.2-28.7-6.9-28.7-16.8c0-9.7,10-15.3,28.1-15.3
		c14.6,0,27.1,3.4,38,13.7L3282.4,1515.6z M2948.9,1717.5v-82.3c10.9,16.8,34.9,21.8,51.1,21.8c49.2,0,77.6-35.5,77.6-80.4
		c0-45.2-31.5-80.4-78.8-80.4c-17.4,0-38,7.5-49.9,24.6l-2.5-21.2h-35.5v217.8L2948.9,1717.5L2948.9,1717.5z M2995.9,1620.2
		c-25.9,0-43.6-19.6-43.6-43.6s16.2-43.6,43.6-43.6c27.4,0,43.6,19.6,43.6,43.6C3039.6,1600.6,3021.8,1620.2,2995.9,1620.2z
		 M2819.8,1653.3v-218.4H2779v218.4H2819.8z M2518.8,1653.3V1571c0-20.3,12.8-38,33.3-38s29,17.1,29,37.4v82.9h38v-82.9
		c0-46.1-21.5-72.9-65.1-72.9c-19.9,0-37.7,6.2-51.4,28.1c-8.7-21.2-27.1-28.7-45.5-28.7c-14.6,0-32.4,5.6-40.5,21.2l-2.8-18.7
		h-35.2v153.9h38V1571c0-20.3,12.2-38.6,32.7-38.6c20.9,0,31.5,18.4,31.5,38.6v82.3H2518.8L2518.8,1653.3z M2177.8,1558.6
		c5.6-19.9,22.4-29.9,43-29.9c21.8,0,37.4,10,39.9,29.9H2177.8z M2297.1,1590c5.9-63.3-26.2-95-77.6-95c-49.9,0-81.6,33.7-81.6,80.4
		c0,49.2,31.5,82,84.4,82c23.4,0,49.9-8.1,66.1-24.9l-24.3-24c-8.7,9-27.1,14.3-41.1,14.3c-26.8,0-43.3-13.7-45.8-32.7L2297.1,1590
		L2297.1,1590z M1954.3,1499.7v153.6h38v-81c0-28.4,18.4-39,38.3-39c12.5,0,19.6,3.4,27.4,10l17.1-33c-8.4-8.4-23.7-14.6-39.6-14.6
		c-15.6,0-31.5,2.8-43.3,21.8l-2.8-17.8H1954.3z M1792.8,1531.1c25.6,0,41.8,22.4,41.8,45.5c0,23.4-14,45.2-41.8,45.2
		c-27.7,0-41.8-21.8-41.8-45.2C1751.1,1553.6,1765.4,1531.1,1792.8,1531.1z M1792.5,1496.5c-48.9,0-79.5,36.2-79.5,80.1
		c0,44.2,29.9,80.1,79.8,80.1s80.1-35.8,80.1-80.1C1872.9,1532.7,1841.5,1496.5,1792.5,1496.5z M1485.5,1434.8v218.4h153.3v-38
		h-112.2v-180.4H1485.5L1485.5,1434.8z"/>
	<g class="st2">
		<g>
			<polygon id="SVGID_1_" class="st3" points="313,327.7 235.2,395.8 140.4,478.9 250.3,478.9 456.2,298.5 512.9,348.3 567.9,300.1 
				456.2,202.2 			"/>
		</g>
		<g>
			<g>
				<g>
					<defs>
						<polygon id="SVGID_00000177459971979215044080000011740891632584123803_" points="313,327.7 235.2,395.8 140.4,478.9 
							250.3,478.9 456.2,298.5 512.9,348.3 567.9,300.1 456.2,202.2 						"/>
					</defs>
					<clipPath id="SVGID_00000061447239550870883270000016407700699764200064_">
						<use xlink:href="#SVGID_00000177459971979215044080000011740891632584123803_"  style="overflow:visible;"/>
					</clipPath>
					
						<rect x="140.4" y="202.2" style="clip-path:url(#SVGID_00000061447239550870883270000016407700699764200064_);" width="427.4" height="276.7"/>
				</g>
			</g>
		</g>
	</g>
	<g class="st2">
		<g>
			<polygon id="SVGID_00000071538878934737665150000013430292162845479056_" class="st3" points="1366.6,284 1456.2,362.5 
				1589,478.9 1462.3,478.9 1201.6,250.4 1136.1,307.7 1072.8,252.2 1201.6,139.4 			"/>
		</g>
		<g>
			<g>
				<g>
					<defs>
						<polygon id="SVGID_00000071524079617815829740000014623455696393339782_" points="1366.6,284 1456.2,362.5 1589,478.9 
							1462.3,478.9 1201.6,250.4 1136.1,307.7 1072.8,252.2 1201.6,139.4 						"/>
					</defs>
					<clipPath id="SVGID_00000147222541342053708340000001275325369167670968_">
						<use xlink:href="#SVGID_00000071524079617815829740000014623455696393339782_"  style="overflow:visible;"/>
					</clipPath>
					
						<rect x="1072.8" y="139.4" style="clip-path:url(#SVGID_00000147222541342053708340000001275325369167670968_);" width="516.2" height="339.5"/>
				</g>
			</g>
		</g>
	</g>
	<g class="st2">
		<g>
			<polygon id="SVGID_00000132772601889763111640000016855858616059281309_" class="st3" points="641.6,135.8 529.7,135.8 
				529.7,333.5 641.6,235.5 			"/>
		</g>
		<g>
			<g>
				<g>
					<defs>
						<polygon id="SVGID_00000105409683164960211670000005042863865266041733_" points="641.6,135.8 529.7,135.8 529.7,333.5 
							641.6,235.5 						"/>
					</defs>
					<clipPath id="SVGID_00000068635253592993221280000004254555317275770287_">
						<use xlink:href="#SVGID_00000105409683164960211670000005042863865266041733_"  style="overflow:visible;"/>
					</clipPath>
					
						<rect x="529.7" y="135.8" style="clip-path:url(#SVGID_00000068635253592993221280000004254555317275770287_);" width="111.9" height="197.8"/>
				</g>
			</g>
		</g>
	</g>
	<g class="st2">
		<g>
			<polygon id="SVGID_00000005256948338561798130000016405083104309750145_" class="st3" points="641.6,235.5 529.7,333.5 
				363.9,478.9 522.1,478.9 847.7,193.6 1173.3,478.9 1331.5,478.9 847.7,55 			"/>
		</g>
		<g>
			<g>
				<g>
					<defs>
						<polygon id="SVGID_00000070082549122883795660000012737843701644712118_" points="641.6,235.5 529.7,333.5 363.9,478.9 
							522.1,478.9 847.7,193.6 1173.3,478.9 1331.5,478.9 847.7,55 						"/>
					</defs>
					<clipPath id="SVGID_00000011019014017218283460000011267846778930950310_">
						<use xlink:href="#SVGID_00000070082549122883795660000012737843701644712118_"  style="overflow:visible;"/>
					</clipPath>
					
						<rect x="363.9" y="55" style="clip-path:url(#SVGID_00000011019014017218283460000011267846778930950310_);" width="967.6" height="423.9"/>
				</g>
			</g>
		</g>
	</g>
	<g class="st2">
		<g>
			
				<rect id="SVGID_00000137106373248358191940000013943760195166251447_" x="847.7" y="351.3" class="st3" width="57.7" height="50.6"/>
		</g>
		<g>
			<g>
				<g>
					<defs>
						<rect id="SVGID_00000049212212276527261330000001137994949669019039_" x="847.7" y="351.3" width="57.7" height="50.6"/>
					</defs>
					<clipPath id="SVGID_00000163056170047061451250000007797664197505279362_">
						<use xlink:href="#SVGID_00000049212212276527261330000001137994949669019039_"  style="overflow:visible;"/>
					</clipPath>
					
						<rect x="847.7" y="351.3" style="clip-path:url(#SVGID_00000163056170047061451250000007797664197505279362_);" width="57.7" height="50.6"/>
				</g>
			</g>
		</g>
	</g>
	<g class="st2">
		<g>
			
				<rect id="SVGID_00000037682377462878856770000013432608202560906131_" x="777.3" y="351.3" class="st3" width="57.7" height="50.6"/>
		</g>
		<g>
			<g>
				<g>
					<defs>
						<rect id="SVGID_00000134221176634249556130000017879551481180490888_" x="777.3" y="351.3" width="57.7" height="50.6"/>
					</defs>
					<clipPath id="SVGID_00000096043842791430318290000012952525595030767279_">
						<use xlink:href="#SVGID_00000134221176634249556130000017879551481180490888_"  style="overflow:visible;"/>
					</clipPath>
					
						<rect x="777.3" y="351.3" style="clip-path:url(#SVGID_00000096043842791430318290000012952525595030767279_);" width="57.7" height="50.6"/>
				</g>
			</g>
		</g>
	</g>
	<g class="st2">
		<g>
			
				<rect id="SVGID_00000103257258731121726300000008060107182466430344_" x="847.7" y="412.1" class="st3" width="57.7" height="50.6"/>
		</g>
		<g>
			<g>
				<g>
					<defs>
						<rect id="SVGID_00000104668608384576495610000005608416294994274193_" x="847.7" y="412.1" width="57.7" height="50.6"/>
					</defs>
					<clipPath id="SVGID_00000097469093025951619690000014111910890369770624_">
						<use xlink:href="#SVGID_00000104668608384576495610000005608416294994274193_"  style="overflow:visible;"/>
					</clipPath>
					
						<rect x="847.7" y="412.1" style="clip-path:url(#SVGID_00000097469093025951619690000014111910890369770624_);" width="57.7" height="50.6"/>
				</g>
			</g>
		</g>
	</g>
	<g class="st2">
		<g>
			
				<rect id="SVGID_00000070078380584671283710000008160871904821768846_" x="777.3" y="412.1" class="st3" width="57.7" height="50.6"/>
		</g>
		<g>
			<g>
				<g>
					<defs>
						<rect id="SVGID_00000060021482230388434530000007519211697356433029_" x="777.3" y="412.1" width="57.7" height="50.6"/>
					</defs>
					<clipPath id="SVGID_00000152247532845513755740000000048896205164403872_">
						<use xlink:href="#SVGID_00000060021482230388434530000007519211697356433029_"  style="overflow:visible;"/>
					</clipPath>
					
						<rect x="777.3" y="412.1" style="clip-path:url(#SVGID_00000152247532845513755740000000048896205164403872_);" width="57.7" height="50.6"/>
				</g>
			</g>
		</g>
	</g>
	<g class="st2">
		<path d="M167.3,669.2l-4.4-10h-37l-4.3,10.2c-1.7,4-3.2,6.7-4.3,8.1c-1.2,1.4-3.2,2.1-5.9,2.1c-2.3,0-4.4-0.7-6.2-2.2
			s-2.7-3.2-2.7-5.1c0-1.1,0.2-2.2,0.6-3.4s1.1-2.8,2.1-4.8l23.3-51.8c0.7-1.5,1.5-3.3,2.4-5.4c0.9-2.1,1.9-3.8,3-5.2
			s2.4-2.5,4.2-3.3c1.7-0.8,3.8-1.3,6.4-1.3c2.6,0,4.7,0.4,6.4,1.3c1.7,0.8,3.1,2,4.2,3.3c1.1,1.3,1.9,2.8,2.7,4.3
			c0.7,1.5,1.6,3.6,2.8,6.2l23.8,51.5c1.9,3.9,2.8,6.8,2.8,8.5c0,1.8-0.9,3.5-2.6,5.1c-1.8,1.5-3.9,2.3-6.4,2.3
			c-1.4,0-2.7-0.2-3.7-0.7s-1.9-1.1-2.6-1.8c-0.7-0.8-1.5-2-2.3-3.6C168.6,671.9,167.9,670.4,167.3,669.2z M130.8,647.1H158
			l-13.7-32.9L130.8,647.1z"/>
		<path d="M308.5,645.8v15.3c0,2-0.2,3.7-0.7,4.9s-1.3,2.3-2.5,3.3s-2.8,1.9-4.7,2.8c-5.5,2.6-10.8,4.5-15.9,5.7s-10.6,1.8-16.6,1.8
			c-7,0-13.4-0.9-19.1-2.8c-5.8-1.9-10.7-4.6-14.7-8.2c-4.1-3.6-7.2-8-9.4-13.1s-3.3-10.8-3.3-17.1c0-6.2,1.1-11.9,3.2-17
			s5.2-9.5,9.3-13.1s9.1-6.3,15-8.2s12.5-2.9,20-2.9c6.1,0,11.5,0.7,16.3,2.2c4.7,1.4,8.5,3.2,11.5,5.4s5.2,4.5,6.6,6.9
			s2.2,4.6,2.2,6.5c0,2-0.9,3.8-2.6,5.2s-3.8,2.2-6.2,2.2c-1.3,0-2.6-0.3-3.8-0.8c-1.2-0.5-2.2-1.3-3.1-2.3
			c-2.3-3.1-4.2-5.5-5.8-7.1c-1.6-1.6-3.7-2.9-6.4-4c-2.7-1.1-6.1-1.6-10.2-1.6c-4.3,0-8.1,0.6-11.4,1.9c-3.4,1.3-6.2,3.2-8.6,5.6
			s-4.2,5.5-5.5,9c-1.3,3.6-1.9,7.5-1.9,11.8c0,9.4,2.4,16.6,7.4,21.6c4.9,5,11.8,7.6,20.5,7.6c4.3,0,8.3-0.5,12-1.5
			s7.5-2.4,11.4-4.2v-13h-14.3c-3.4,0-6-0.5-7.8-1.4s-2.6-2.5-2.6-4.6c0-1.8,0.7-3.2,2.2-4.4s3.5-1.7,6-1.7h21
			c2.6,0,4.7,0.2,6.5,0.6c1.8,0.4,3.2,1.3,4.3,2.7C308,641,308.5,643,308.5,645.8z"/>
		<path d="M354.2,645.3v-38.4c0-3.3,0.8-5.7,2.5-7.3s3.9-2.5,6.6-2.5c2.9,0,5.1,0.8,6.8,2.5s2.5,4.1,2.5,7.3v39.2
			c0,4.5,0.6,8.2,1.7,11.2s3.2,5.3,6.1,7s7,2.5,12.2,2.5c7.2,0,12.3-1.7,15.3-5c3-3.4,4.5-8.4,4.5-15.3v-39.6c0-3.3,0.8-5.8,2.5-7.4
			c1.7-1.6,3.9-2.4,6.6-2.4c2.8,0,5,0.8,6.7,2.4s2.6,4.1,2.6,7.4v38.4c0,6.2-0.7,11.5-2.1,15.6c-1.4,4.2-4,7.8-7.9,11
			c-3.3,2.7-7.2,4.6-11.5,5.9c-4.4,1.2-9.5,1.8-15.4,1.8c-7,0-13-0.7-18.1-2c-5-1.3-9.2-3.4-12.4-6.2c-3.2-2.8-5.5-6.3-7-10.7
			C355,656.5,354.2,651.3,354.2,645.3z"/>
		<path d="M530.6,669.2l-4.3-10h-37l-4.4,10.2c-1.7,4-3.1,6.7-4.4,8.1c-1.2,1.4-3.2,2.1-5.9,2.1c-2.3,0-4.4-0.7-6.1-2.2
			s-2.7-3.2-2.7-5.1c0-1.1,0.2-2.2,0.6-3.4s1.1-2.8,2-4.8l23.3-51.8c0.7-1.5,1.5-3.3,2.4-5.4c0.9-2.1,1.9-3.8,3-5.2s2.4-2.5,4.2-3.3
			c1.7-0.8,3.8-1.3,6.4-1.3s4.7,0.4,6.4,1.3c1.7,0.8,3.1,2,4.2,3.3c1.1,1.3,2,2.8,2.7,4.3s1.7,3.6,2.8,6.2l23.8,51.5
			c1.9,3.9,2.8,6.8,2.8,8.5c0,1.8-0.9,3.5-2.6,5.1c-1.8,1.5-3.9,2.3-6.4,2.3c-1.5,0-2.7-0.2-3.7-0.7s-1.9-1.1-2.6-1.8
			c-0.7-0.8-1.5-2-2.3-3.6C531.9,671.9,531.2,670.4,530.6,669.2z M494.1,647.1h27.2l-13.7-32.9L494.1,647.1z"/>
		<path d="M663.1,598.5h24c6.2,0,11.6,0.5,16.1,1.5s8.5,2.9,12.2,5.7c9.5,7.1,14.2,17.9,14.2,32.4c0,4.8-0.5,9.2-1.4,13.1
			c-1,4-2.4,7.5-4.4,10.7s-4.5,6-7.6,8.5c-2.4,1.9-5.1,3.5-8,4.6c-2.9,1.2-6,2-9.3,2.5s-7.1,0.7-11.3,0.7h-24
			c-3.3,0-5.9-0.4-7.6-1.3s-2.8-2.1-3.3-3.8c-0.5-1.6-0.8-3.7-0.8-6.3v-58.5c0-3.5,0.9-6,2.7-7.6
			C656.2,599.2,659.1,598.5,663.1,598.5z M670.2,611.2v54.2h14c3.1,0,5.5-0.1,7.2-0.2c1.7-0.1,3.5-0.5,5.4-1.1s3.5-1.4,4.8-2.5
			c6.2-4.6,9.2-12.4,9.2-23.6c0-7.9-1.4-13.8-4.1-17.7s-6.1-6.4-10-7.5c-4-1.1-8.8-1.6-14.4-1.6L670.2,611.2L670.2,611.2z"/>
		<path d="M813.8,597.1c9.4,0,17.5,1.7,24.3,5c6.8,3.4,11.9,8.1,15.4,14.3s5.2,13.5,5.2,21.8c0,6.2-1,11.8-2.9,16.8
			s-4.8,9.4-8.6,13.1s-8.5,6.5-14,8.5s-11.9,2.9-19.1,2.9c-7.1,0-13.5-1-19.1-3s-10.3-4.8-14.1-8.5s-6.6-8.1-8.5-13.2
			c-1.9-5.2-2.9-10.7-2.9-16.7c0-6.1,1-11.8,3-16.9c2-5.1,4.9-9.5,8.7-13.1s8.5-6.3,13.9-8.2C800.7,598,806.9,597.1,813.8,597.1z
			 M840.1,638.1c0-5.8-1.1-10.9-3.2-15.2c-2.2-4.3-5.2-7.5-9.2-9.7s-8.6-3.3-13.8-3.3c-3.7,0-7.1,0.6-10.2,1.8
			c-3.1,1.2-5.8,3-8.1,5.3s-4,5.3-5.3,8.9c-1.3,3.6-2,7.7-2,12.2s0.7,8.6,2,12.3s3.2,6.7,5.5,9.1c2.4,2.4,5.1,4.2,8.2,5.4
			c3.1,1.2,6.5,1.8,10.2,1.8c4.7,0,9.1-1,13-3.1c4-2.1,7.1-5.3,9.4-9.6C838.9,649.8,840.1,644.5,840.1,638.1z"/>
		<path d="M1001.2,678.2h-27.8c-4,0-6.9-0.8-8.6-2.4s-2.6-4.1-2.6-7.5v-60c0-3.5,0.9-6,2.6-7.6c1.8-1.5,4.6-2.3,8.5-2.3h29.5
			c4.3,0,8.1,0.2,11.3,0.7s6,1.4,8.6,2.7c2.2,1.1,4.1,2.5,5.7,4.3c1.7,1.7,2.9,3.6,3.8,5.7c0.9,2.1,1.3,4.3,1.3,6.6
			c0,8-4.6,13.8-13.7,17.5c12,3.3,18,9.8,18,19.5c0,4.5-1.3,8.5-3.9,12s-6.1,6.2-10.6,7.9c-2.8,1-6,1.7-9.6,2.2
			C1010.2,678,1006,678.2,1001.2,678.2z M980.6,610.6v20.6h16.9c4.6,0,8.2-0.4,10.7-1.1c2.5-0.8,4.4-2.2,5.8-4.3
			c1-1.5,1.5-3.2,1.5-5.1c0-4-1.6-6.7-4.9-8c-3.3-1.3-8.3-2-15-2h-15V610.6z M999.8,642.8h-19.2v23.3h19.8
			c12.5,0,18.7-3.9,18.7-11.8c0-4-1.6-7-4.8-8.8S1006.2,642.8,999.8,642.8z"/>
		<path d="M1135.2,669.2l-4.3-10h-37l-4.3,10.2c-1.7,4-3.2,6.7-4.3,8.1c-1.2,1.4-3.2,2.1-5.9,2.1c-2.3,0-4.4-0.7-6.2-2.2
			s-2.7-3.2-2.7-5.1c0-1.1,0.2-2.2,0.6-3.4s1.1-2.8,2.1-4.8l23.3-51.8c0.7-1.5,1.5-3.3,2.4-5.4c0.9-2.1,1.9-3.8,3-5.2
			s2.4-2.5,4.2-3.3c1.7-0.8,3.8-1.3,6.4-1.3s4.7,0.4,6.4,1.3c1.7,0.8,3.1,2,4.2,3.3s1.9,2.8,2.7,4.3c0.7,1.5,1.7,3.6,2.8,6.2
			l23.8,51.5c1.9,3.9,2.8,6.8,2.8,8.5c0,1.8-0.9,3.5-2.6,5.1c-1.8,1.5-3.9,2.3-6.4,2.3c-1.4,0-2.7-0.2-3.7-0.7s-1.9-1.1-2.6-1.8
			c-0.7-0.8-1.5-2-2.3-3.6C1136.5,671.9,1135.8,670.4,1135.2,669.2z M1098.7,647.1h27.2l-13.7-32.9L1098.7,647.1z"/>
		<path d="M1221.2,644.1h-6.5v25.6c0,3.4-0.8,5.9-2.6,7.5c-1.7,1.6-3.9,2.4-6.7,2.4c-2.9,0-5.2-0.8-6.8-2.5
			c-1.6-1.7-2.4-4.1-2.4-7.3v-61.4c0-3.5,0.9-6,2.7-7.6s4.7-2.3,8.6-2.3h30c4.1,0,7.7,0.2,10.6,0.5s5.6,0.9,7.9,1.9
			c2.9,1,5.4,2.6,7.6,4.5c2.2,2,3.9,4.2,5,6.8s1.7,5.3,1.7,8.2c0,6-1.9,10.7-5.7,14.3c-3.8,3.6-9.6,6.1-17.4,7.6
			c3.3,1.5,6.4,3.8,9.4,6.8s5.6,6.1,8,9.5s4.2,6.4,5.5,9.1c1.3,2.7,2,4.6,2,5.6s-0.4,2.1-1.2,3.1s-1.8,1.8-3.1,2.5
			c-1.3,0.6-2.9,0.9-4.6,0.9c-2.1,0-3.8-0.4-5.2-1.3c-1.4-0.8-2.6-1.9-3.6-3.2s-2.4-3.2-4.1-5.8l-7.4-10.8c-2.7-4-5-7-7.1-9
			c-2.1-2.1-4.2-3.5-6.4-4.2C1227.2,644.5,1224.4,644.1,1221.2,644.1z M1231.7,610.6h-17v21.9h16.5c4.4,0,8.2-0.3,11.2-1
			s5.3-1.8,6.9-3.4c1.6-1.6,2.4-3.8,2.4-6.7c0-2.2-0.6-4.2-1.9-5.8c-1.3-1.7-3.1-3-5.3-3.8C1242.3,611,1238.1,610.6,1231.7,610.6z"
			/>
		<path d="M1340.7,644.1h-6.5v25.6c0,3.4-0.8,5.9-2.6,7.5c-1.7,1.6-3.9,2.4-6.7,2.4c-2.9,0-5.2-0.8-6.8-2.5
			c-1.6-1.7-2.4-4.1-2.4-7.3v-61.4c0-3.5,0.9-6,2.7-7.6s4.7-2.3,8.6-2.3h30c4.1,0,7.7,0.2,10.6,0.5s5.6,0.9,7.9,1.9
			c2.9,1,5.4,2.6,7.6,4.5c2.2,2,3.9,4.2,5,6.8s1.7,5.3,1.7,8.2c0,6-1.9,10.7-5.7,14.3c-3.8,3.6-9.6,6.1-17.4,7.6
			c3.3,1.5,6.4,3.8,9.4,6.8s5.6,6.1,8,9.5s4.2,6.4,5.5,9.1c1.3,2.7,2,4.6,2,5.6s-0.4,2.1-1.2,3.1s-1.8,1.8-3.1,2.5
			c-1.3,0.6-2.9,0.9-4.6,0.9c-2.1,0-3.8-0.4-5.2-1.3c-1.4-0.8-2.6-1.9-3.6-3.2s-2.4-3.2-4.1-5.8l-7.4-10.8c-2.7-4-5-7-7.1-9
			s-4.2-3.5-6.4-4.2C1346.6,644.5,1343.9,644.1,1340.7,644.1z M1351.2,610.6h-17v21.9h16.5c4.4,0,8.2-0.3,11.2-1s5.3-1.8,6.9-3.4
			c1.6-1.6,2.4-3.8,2.4-6.7c0-2.2-0.6-4.2-1.9-5.8c-1.3-1.7-3.1-3-5.3-3.8C1361.8,611,1357.6,610.6,1351.2,610.6z"/>
		<path d="M1436.1,669.8v-62.9c0-3.3,0.8-5.7,2.6-7.3c1.7-1.6,3.9-2.5,6.6-2.5c2.8,0,5,0.8,6.7,2.4s2.6,4.1,2.6,7.4v62.9
			c0,3.3-0.9,5.8-2.6,7.4s-4,2.5-6.7,2.5s-4.8-0.8-6.6-2.5C1436.9,675.5,1436.1,673,1436.1,669.8z"/>
		<path d="M1543.2,597.1c9.4,0,17.6,1.7,24.3,5c6.8,3.4,11.9,8.1,15.4,14.3s5.2,13.5,5.2,21.8c0,6.2-0.9,11.8-2.9,16.8
			c-1.9,5-4.8,9.4-8.6,13.1c-3.8,3.7-8.5,6.5-14,8.5c-5.6,2-11.9,2.9-19.1,2.9c-7.1,0-13.5-1-19.1-3s-10.3-4.8-14.1-8.5
			c-3.8-3.7-6.6-8.1-8.5-13.2c-1.9-5.2-2.9-10.7-2.9-16.7c0-6.1,1-11.8,3-16.9c2-5.1,4.9-9.5,8.7-13.1c3.8-3.6,8.4-6.3,13.9-8.2
			C1530,598,1536.2,597.1,1543.2,597.1z M1569.4,638.1c0-5.8-1.1-10.9-3.2-15.2c-2.2-4.3-5.2-7.5-9.2-9.7s-8.6-3.3-13.8-3.3
			c-3.7,0-7.1,0.6-10.2,1.8s-5.8,3-8.1,5.3c-2.3,2.3-4,5.3-5.3,8.9c-1.3,3.6-2,7.7-2,12.2s0.7,8.6,2,12.3s3.2,6.7,5.5,9.1
			c2.4,2.4,5.1,4.2,8.2,5.4s6.5,1.8,10.2,1.8c4.7,0,9.1-1,13-3.1s7.1-5.3,9.4-9.6C1568.2,649.8,1569.4,644.5,1569.4,638.1z"/>
	</g>
	<g class="st2">
		<path d="M110.9,757.2c-1.6,0-3-0.4-4.1-1.3c-1.1-0.9-1.7-2.1-1.7-3.7c0-1.4,0.6-2.6,1.8-3.5c1.2-0.9,2.5-1.4,4.1-1.4
			c1.5,0,2.8,0.4,4,1.3s1.7,2.1,1.7,3.7c0,1.5-0.6,2.8-1.7,3.7C113.8,756.8,112.4,757.2,110.9,757.2z M116.6,767.7v29.2
			c0,2-0.6,3.5-1.7,4.6c-1.1,1-2.5,1.5-4.2,1.5s-3.1-0.5-4.1-1.6c-1.1-1.1-1.6-2.6-1.6-4.5V768c0-2,0.5-3.5,1.6-4.5s2.4-1.5,4.1-1.5
			s3.1,0.5,4.2,1.5C116.1,764.5,116.6,765.9,116.6,767.7z"/>
		<path d="M229.8,767.5v1.2c2-2.3,4.2-4.1,6.6-5.2c2.4-1.1,5.2-1.7,8.3-1.7c3,0,5.8,0.6,8.1,1.7s4.2,2.8,5.4,4.9
			c0.8,1.2,1.2,2.6,1.5,4s0.3,3.3,0.3,5.5v18.8c0,2-0.5,3.5-1.6,4.6c-1.1,1-2.4,1.5-4.1,1.5c-1.7,0-3.1-0.5-4.2-1.6
			c-1.1-1.1-1.6-2.6-1.6-4.5V780c0-3.3-0.5-5.9-1.6-7.6c-1.1-1.8-3.2-2.7-6.3-2.7c-2.1,0-3.9,0.5-5.6,1.6s-2.9,2.5-3.7,4.4
			c-0.6,1.5-0.8,4.3-0.8,8.4v12.7c0,2-0.5,3.6-1.6,4.6s-2.5,1.5-4.2,1.5s-3-0.5-4.1-1.6s-1.6-2.6-1.6-4.5v-29.2
			c0-1.9,0.5-3.4,1.4-4.3s2.3-1.4,3.9-1.4c1,0,1.9,0.2,2.8,0.6s1.5,1,2,1.9C229.6,765.3,229.8,766.3,229.8,767.5z"/>
		<path d="M400.8,783.2v13.4c0,2.1-0.5,3.7-1.6,4.8s-2.5,1.6-4.4,1.6c-1.8,0-3.2-0.5-4.2-1.6s-1.6-2.7-1.6-4.8v-16.1
			c0-2.5-0.1-4.5-0.3-5.9c-0.2-1.4-0.7-2.6-1.6-3.5s-2.2-1.3-4.1-1.3c-3.8,0-6.3,1.1-7.5,3.4c-1.2,2.3-1.8,5.5-1.8,9.8v13.7
			c0,2.1-0.5,3.7-1.6,4.8s-2.5,1.6-4.3,1.6s-3.2-0.5-4.3-1.6c-1.1-1.1-1.7-2.7-1.7-4.8v-28.9c0-1.9,0.5-3.3,1.5-4.3s2.3-1.5,4-1.5
			c1.6,0,2.9,0.5,4,1.4s1.6,2.2,1.6,3.8v1c2-2.1,4.1-3.6,6.4-4.6s4.8-1.5,7.6-1.5c2.9,0,5.4,0.5,7.5,1.5s3.8,2.5,5.1,4.6
			c1.9-2.1,4-3.6,6.2-4.6s4.7-1.5,7.4-1.5c3.1,0,5.9,0.5,8.1,1.6s4,2.6,5.1,4.7c1,1.8,1.5,4.7,1.5,8.6v19.7c0,2.1-0.5,3.7-1.6,4.8
			s-2.5,1.6-4.4,1.6c-1.8,0-3.2-0.5-4.3-1.6c-1.1-1.1-1.7-2.7-1.7-4.8v-17c0-2.2-0.1-3.9-0.3-5.2c-0.2-1.3-0.8-2.4-1.7-3.3
			c-0.9-0.9-2.3-1.3-4.2-1.3c-1.5,0-3,0.4-4.3,1.2s-2.4,1.8-3.2,3.2C401.2,775.9,400.8,778.9,400.8,783.2z"/>
		<path d="M572.9,782.5c0,3-0.5,5.8-1.6,8.3s-2.6,4.7-4.7,6.5s-4.5,3.2-7.3,4.2s-6,1.5-9.5,1.5s-6.6-0.5-9.4-1.5s-5.2-2.4-7.2-4.2
			s-3.6-4-4.7-6.5s-1.6-5.3-1.6-8.3c0-3.1,0.5-5.9,1.6-8.4s2.6-4.7,4.6-6.5s4.4-3.2,7.3-4.2s6-1.5,9.4-1.5c3.5,0,6.7,0.5,9.5,1.5
			s5.3,2.4,7.3,4.2s3.6,4,4.6,6.5S572.9,779.4,572.9,782.5z M561.3,782.5c0-4.1-1-7.3-3.1-9.6s-4.8-3.4-8.3-3.4
			c-2.2,0-4.2,0.5-6,1.5c-1.7,1-3,2.5-4,4.5c-0.9,2-1.4,4.3-1.4,7c0,2.6,0.5,5,1.4,6.9s2.2,3.5,3.9,4.5s3.7,1.6,6,1.6
			c3.5,0,6.3-1.2,8.3-3.5C560.3,789.7,561.3,786.5,561.3,782.5z"/>
		<path d="M683.5,752.7v15.4c2.2-2,4.4-3.5,6.6-4.5c2.2-1,5-1.6,8.4-1.6c3.8,0,7.2,0.8,10.1,2.4c2.9,1.6,5.1,3.9,6.7,6.9
			c1.6,3,2.4,6.6,2.4,10.8c0,3.1-0.4,5.9-1.3,8.4s-2.2,4.8-3.9,6.6c-1.7,1.9-3.7,3.3-6.2,4.3c-2.4,1-5.1,1.5-8,1.5
			c-1.8,0-3.4-0.2-5-0.6s-2.9-0.9-4-1.5s-2-1.2-2.8-1.9c-0.8-0.6-1.8-1.6-3.1-2.9v1c0,1.9-0.5,3.3-1.6,4.3s-2.4,1.5-4,1.5
			s-2.9-0.5-3.9-1.5s-1.5-2.4-1.5-4.3v-44.1c0-2,0.5-3.6,1.4-4.6s2.3-1.6,4-1.6c1.8,0,3.1,0.5,4.1,1.5
			C683,749.4,683.5,750.8,683.5,752.7z M684,782.7c0,4,1,7.1,3.2,9.3c2.1,2.2,4.8,3.2,8.3,3.2c2.9,0,5.4-1.1,7.5-3.3
			s3.2-5.4,3.2-9.5c0-2.7-0.4-5-1.3-6.9s-2.1-3.4-3.7-4.5c-1.6-1-3.5-1.6-5.6-1.6c-2.2,0-4.2,0.5-5.9,1.6s-3.1,2.6-4,4.5
			C684.5,777.6,684,779.9,684,782.7z"/>
		<path d="M823.5,757.2c-1.6,0-3-0.4-4.1-1.3c-1.1-0.9-1.7-2.1-1.7-3.7c0-1.4,0.6-2.6,1.8-3.5s2.5-1.4,4.1-1.4c1.5,0,2.8,0.4,4,1.3
			c1.2,0.8,1.7,2.1,1.7,3.7c0,1.5-0.6,2.8-1.7,3.7C826.4,756.8,825.1,757.2,823.5,757.2z M829.2,767.7v29.2c0,2-0.5,3.5-1.7,4.6
			s-2.5,1.5-4.2,1.5s-3.1-0.5-4.1-1.6s-1.6-2.6-1.6-4.5V768c0-2,0.5-3.5,1.6-4.5s2.4-1.5,4.1-1.5s3.1,0.5,4.2,1.5
			C828.7,764.5,829.2,765.9,829.2,767.7z"/>
		<path d="M932,796.9V753c0-2,0.5-3.5,1.5-4.6c1-1,2.4-1.5,4.2-1.5s3.2,0.5,4.2,1.5c1.1,1,1.6,2.6,1.6,4.6v43.8c0,2-0.5,3.6-1.6,4.6
			s-2.5,1.5-4.2,1.5s-3.1-0.5-4.1-1.6C932.5,800.3,932,798.8,932,796.9z"/>
		<path d="M1052.1,757.2c-1.6,0-3-0.4-4.1-1.3c-1.1-0.9-1.7-2.1-1.7-3.7c0-1.4,0.6-2.6,1.8-3.5c1.2-0.9,2.5-1.4,4.1-1.4
			c1.5,0,2.8,0.4,4,1.3s1.7,2.1,1.7,3.7c0,1.5-0.6,2.8-1.7,3.7C1054.9,756.8,1053.6,757.2,1052.1,757.2z M1057.8,767.7v29.2
			c0,2-0.6,3.5-1.7,4.6c-1.1,1-2.5,1.5-4.2,1.5s-3.1-0.5-4.1-1.6c-1.1-1.1-1.6-2.6-1.6-4.5V768c0-2,0.5-3.5,1.6-4.5s2.4-1.5,4.1-1.5
			s3.1,0.5,4.2,1.5C1057.2,764.5,1057.8,765.9,1057.8,767.7z"/>
		<path d="M1189.6,797.3c-2.8,1.9-5.5,3.3-8.1,4.3s-5.5,1.4-8.8,1.4c-3,0-5.6-0.5-7.8-1.5c-2.2-1-4-2.4-5.2-4.2s-1.8-3.7-1.8-5.7
			c0-2.8,1-5.1,3-7.1s4.7-3.3,8.2-3.9c0.7-0.2,2.6-0.5,5.4-1c2.9-0.5,5.4-1,7.4-1.4s4.3-1,6.7-1.6c-0.1-2.7-0.8-4.6-1.8-5.9
			c-1.1-1.2-3.3-1.9-6.7-1.9c-2.9,0-5.1,0.4-6.6,1.1c-1.5,0.7-2.8,1.8-3.8,3.2c-1.1,1.4-1.8,2.4-2.2,2.8s-1.4,0.7-2.8,0.7
			c-1.3,0-2.4-0.4-3.4-1.1c-0.9-0.7-1.4-1.7-1.4-2.8c0-1.8,0.7-3.5,2.2-5.2c1.4-1.7,3.7-3.1,6.7-4.1c3-1.1,6.8-1.6,11.4-1.6
			c5.1,0,9.1,0.5,11.9,1.6c2.9,1,4.9,2.7,6.1,5s1.8,5.3,1.8,9c0,2.4,0,4.4,0,6s0,3.5-0.1,5.5c0,1.9,0.4,3.9,1.1,5.9s1.1,3.4,1.1,4
			c0,1-0.6,2-1.7,2.8s-2.4,1.3-3.8,1.3c-1.2,0-2.3-0.5-3.5-1.5C1192.2,800.6,1190.9,799.2,1189.6,797.3z M1188.9,782.7
			c-1.7,0.5-4.2,1.1-7.4,1.7c-3.2,0.6-5.5,1-6.7,1.3s-2.4,0.8-3.6,1.7c-1.1,0.8-1.7,2-1.7,3.5s0.7,2.8,2,3.9
			c1.3,1.1,3.1,1.6,5.2,1.6c2.3,0,4.4-0.4,6.3-1.3c1.9-0.9,3.3-2,4.2-3.4c1-1.5,1.6-4,1.6-7.5L1188.9,782.7L1188.9,782.7z"/>
		<path d="M1314.2,788.4v8.4c0,2-0.6,3.6-1.7,4.6s-2.5,1.5-4.2,1.5s-3-0.5-4.1-1.5s-1.6-2.6-1.6-4.6v-28.1c0-4.5,1.9-6.8,5.6-6.8
			c1.9,0,3.3,0.5,4.1,1.6c0.8,1.1,1.3,2.6,1.4,4.7c1.4-2.1,2.8-3.6,4.2-4.7s3.4-1.6,5.8-1.6s4.8,0.5,7.1,1.6s3.4,2.5,3.4,4.2
			c0,1.2-0.5,2.2-1.5,3s-2,1.2-3.2,1.2c-0.4,0-1.4-0.2-3.1-0.7c-1.6-0.5-3.1-0.7-4.3-0.7c-1.7,0-3.1,0.4-4.1,1.2
			c-1.1,0.8-1.9,1.9-2.5,3.5s-1,3.3-1.2,5.5C1314.3,782.8,1314.2,785.4,1314.2,788.4z"/>
		<path d="M1437.3,757.2c-1.6,0-3-0.4-4.1-1.3c-1.1-0.9-1.7-2.1-1.7-3.7c0-1.4,0.6-2.6,1.8-3.5c1.2-0.9,2.5-1.4,4.1-1.4
			c1.5,0,2.8,0.4,4,1.3s1.7,2.1,1.7,3.7c0,1.5-0.6,2.8-1.7,3.7C1440.1,756.8,1438.8,757.2,1437.3,757.2z M1443,767.7v29.2
			c0,2-0.6,3.5-1.7,4.6c-1.1,1-2.5,1.5-4.2,1.5s-3.1-0.5-4.1-1.6c-1.1-1.1-1.6-2.6-1.6-4.5V768c0-2,0.5-3.5,1.6-4.5s2.4-1.5,4.1-1.5
			s3.1,0.5,4.2,1.5S1443,765.9,1443,767.7z"/>
		<path d="M1574.8,797.3c-2.8,1.9-5.5,3.3-8.1,4.3s-5.5,1.4-8.8,1.4c-3,0-5.6-0.5-7.8-1.5c-2.2-1-4-2.4-5.2-4.2s-1.8-3.7-1.8-5.7
			c0-2.8,1-5.1,3-7.1s4.7-3.3,8.2-3.9c0.7-0.2,2.6-0.5,5.4-1c2.9-0.5,5.4-1,7.4-1.4s4.3-1,6.7-1.6c-0.1-2.7-0.8-4.6-1.8-5.9
			c-1.1-1.2-3.3-1.9-6.7-1.9c-2.9,0-5.1,0.4-6.6,1.1c-1.5,0.7-2.8,1.8-3.8,3.2c-1.1,1.4-1.8,2.4-2.2,2.8s-1.4,0.7-2.8,0.7
			c-1.3,0-2.4-0.4-3.4-1.1c-0.9-0.7-1.4-1.7-1.4-2.8c0-1.8,0.7-3.5,2.2-5.2c1.4-1.7,3.7-3.1,6.7-4.1c3-1.1,6.8-1.6,11.4-1.6
			c5.1,0,9.1,0.5,11.9,1.6c2.9,1,4.9,2.7,6.1,5s1.8,5.3,1.8,9c0,2.4,0,4.4,0,6s0,3.5-0.1,5.5c0,1.9,0.4,3.9,1.1,5.9s1.1,3.4,1.1,4
			c0,1-0.6,2-1.7,2.8s-2.4,1.3-3.8,1.3c-1.2,0-2.3-0.5-3.5-1.5C1577.3,800.6,1576.1,799.2,1574.8,797.3z M1574.1,782.7
			c-1.7,0.5-4.2,1.1-7.4,1.7c-3.2,0.6-5.5,1-6.7,1.3s-2.4,0.8-3.6,1.7c-1.1,0.8-1.7,2-1.7,3.5s0.7,2.8,2,3.9
			c1.3,1.1,3.1,1.6,5.2,1.6c2.3,0,4.4-0.4,6.3-1.3c1.9-0.9,3.3-2,4.2-3.4c1-1.5,1.6-4,1.6-7.5L1574.1,782.7L1574.1,782.7z"/>
	</g>
</g>
<g id="Capa_2" class="st12">
	<path class="st13" d="M1443.2,914H333.8C149.4,914,0,764.6,0,580.2V333.8C0,149.4,149.4,0,333.8,0h1109.4
		C1627.6,0,1777,149.4,1777,333.8v246.4C1777,764.6,1627.6,914,1443.2,914z"/>
	<g class="st14">
		<g>
			<path id="SVGID_00000057857287650126901680000018149188032148520343_" class="st15" d="M254.4,486.9L164,592.2l-62.8,73.3
				c-18.6,21.7-3.2,55.3,25.5,55.3h39.4c9.8,0,19.1-4.3,25.5-11.7l203.7-237.7c13.4-15.6,37.6-15.6,50.9,0l15,17.5
				c13.4,15.6,37.5,15.7,50.9,0l19.7-23c10.8-12.6,10.8-31.1,0-43.6l-85.6-100c-13.4-15.6-37.5-15.6-50.9,0L254.4,486.9z"/>
		</g>
		<g>
			<g>
				<g>
					<defs>
						<path id="SVGID_00000029039302095720566920000015049123169412807068_" d="M254.4,486.9L164,592.2l-62.8,73.3
							c-18.6,21.7-3.2,55.3,25.5,55.3h39.4c9.8,0,19.1-4.3,25.5-11.7l203.7-237.7c13.4-15.6,37.6-15.6,50.9,0l15,17.5
							c13.4,15.6,37.5,15.7,50.9,0l19.7-23c10.8-12.6,10.8-31.1,0-43.6l-85.6-100c-13.4-15.6-37.5-15.6-50.9,0L254.4,486.9z"/>
					</defs>
					<use xlink:href="#SVGID_00000029039302095720566920000015049123169412807068_"  style="overflow:visible;fill:#E6C409;"/>
					<clipPath id="SVGID_00000074400539808928094500000016858253782554242182_">
						<use xlink:href="#SVGID_00000029039302095720566920000015049123169412807068_"  style="overflow:visible;"/>
					</clipPath>
					
						<rect x="53.9" y="292.6" style="clip-path:url(#SVGID_00000074400539808928094500000016858253782554242182_);fill:#E6C409;" width="496.6" height="428.2"/>
				</g>
			</g>
		</g>
	</g>
	<g class="st14">
		<g>
			<path id="SVGID_00000038406404311967587760000007897297911480899247_" class="st15" d="M1478.6,419.2l104.1,121.5l106.9,124.8
				c18.6,21.7,3.2,55.3-25.5,55.3h-58.9c-9.8,0-19.1-4.3-25.5-11.7l-267.4-312.2c-13.4-15.6-37.5-15.6-50.9,0l-25.2,29.3
				c-13.4,15.6-37.5,15.6-50.9,0l-29.4-34.4c-10.8-12.6-10.7-31.1,0-43.6l105.5-123.1c13.4-15.6,37.5-15.6,50.9,0L1478.6,419.2z"/>
		</g>
		<g>
			<g>
				<g>
					<defs>
						<path id="SVGID_00000044151817579077763890000016927877810636273838_" d="M1478.6,419.2l104.1,121.5l106.9,124.8
							c18.6,21.7,3.2,55.3-25.5,55.3h-58.9c-9.8,0-19.1-4.3-25.5-11.7l-267.4-312.2c-13.4-15.6-37.5-15.6-50.9,0l-25.2,29.3
							c-13.4,15.6-37.5,15.6-50.9,0l-29.4-34.4c-10.8-12.6-10.7-31.1,0-43.6l105.5-123.1c13.4-15.6,37.5-15.6,50.9,0L1478.6,419.2z"
							/>
					</defs>
					<use xlink:href="#SVGID_00000044151817579077763890000016927877810636273838_"  style="overflow:visible;fill:#E6C409;"/>
					<clipPath id="SVGID_00000033351797409043443950000005195756431595912359_">
						<use xlink:href="#SVGID_00000044151817579077763890000016927877810636273838_"  style="overflow:visible;"/>
					</clipPath>
					
						<rect x="1137.3" y="195.5" style="clip-path:url(#SVGID_00000033351797409043443950000005195756431595912359_);fill:#E6C409;" width="599.8" height="525.4"/>
				</g>
			</g>
		</g>
	</g>
	<g class="st14">
		<g>
			<path id="SVGID_00000142884559751874979450000006568619780218697899_" class="st15" d="M602.7,189.9h-63
				c-18.5,0-33.5,15-33.5,33.5v181.8c0,31.1,38.7,45.4,59,21.8l63-73.5c5.2-6.1,8.1-13.8,8.1-21.8V223.4
				C636.2,204.9,621.2,189.9,602.7,189.9z"/>
		</g>
		<g>
			<g>
				<g>
					<defs>
						<path id="SVGID_00000065771898098740627360000010373240009041461161_" d="M602.7,189.9h-63c-18.5,0-33.5,15-33.5,33.5v181.8
							c0,31.1,38.7,45.4,59,21.8l63-73.5c5.2-6.1,8.1-13.8,8.1-21.8V223.4C636.2,204.9,621.2,189.9,602.7,189.9z"/>
					</defs>
					<use xlink:href="#SVGID_00000065771898098740627360000010373240009041461161_"  style="overflow:visible;fill:#E6C409;"/>
					<clipPath id="SVGID_00000041985023314036886870000000005460786708663487_">
						<use xlink:href="#SVGID_00000065771898098740627360000010373240009041461161_"  style="overflow:visible;"/>
					</clipPath>
					
						<rect x="506.2" y="189.9" style="clip-path:url(#SVGID_00000041985023314036886870000000005460786708663487_);fill:#E6C409;" width="130" height="306.1"/>
				</g>
			</g>
		</g>
	</g>
	<g class="st14">
		<g>
			<path id="SVGID_00000156567924313549170850000008292119271277131178_" class="st15" d="M636.2,344.2l-130,151.6L360.9,665.5
				c-18.6,21.7-3.2,55.3,25.5,55.3H482c9.8,0,19.1-4.3,25.5-11.7L850.3,309c13.4-15.6,37.5-15.6,50.9,0L1244,709.1
				c6.4,7.4,15.7,11.7,25.5,11.7h95.5c28.6,0,44.1-33.6,25.5-55.3L901.2,94.6c-13.4-15.6-37.5-15.6-50.9,0L636.2,344.2z"/>
		</g>
		<g>
			<g>
				<g>
					<defs>
						<path id="SVGID_00000127748016059965517010000012714007515513523351_" d="M636.2,344.2l-130,151.6L360.9,665.5
							c-18.6,21.7-3.2,55.3,25.5,55.3H482c9.8,0,19.1-4.3,25.5-11.7L850.3,309c13.4-15.6,37.5-15.6,50.9,0L1244,709.1
							c6.4,7.4,15.7,11.7,25.5,11.7h95.5c28.6,0,44.1-33.6,25.5-55.3L901.2,94.6c-13.4-15.6-37.5-15.6-50.9,0L636.2,344.2z"/>
					</defs>
					<use xlink:href="#SVGID_00000127748016059965517010000012714007515513523351_"  style="overflow:visible;fill:#E6C409;"/>
					<clipPath id="SVGID_00000160148869983273679270000006437375694268642985_">
						<use xlink:href="#SVGID_00000127748016059965517010000012714007515513523351_"  style="overflow:visible;"/>
					</clipPath>
					
						<rect x="313.6" y="64.9" style="clip-path:url(#SVGID_00000160148869983273679270000006437375694268642985_);fill:#E6C409;" width="1124.3" height="656"/>
				</g>
			</g>
		</g>
	</g>
	<g class="st14">
		<g>
			<path id="SVGID_00000109020631422591773810000002574088798711667628_" class="st15" d="M909.2,523.4L909.2,523.4
				c18.5,0,33.5,15,33.5,33.5v11.3c0,18.5-15,33.5-33.5,33.5h0c-18.5,0-33.5-15-33.5-33.5v-11.3
				C875.7,538.4,890.7,523.4,909.2,523.4z"/>
		</g>
		<g>
			<g>
				<g>
					<defs>
						<path id="SVGID_00000044162062863954888430000014940219438948060811_" d="M909.2,523.4L909.2,523.4c18.5,0,33.5,15,33.5,33.5
							v11.3c0,18.5-15,33.5-33.5,33.5h0c-18.5,0-33.5-15-33.5-33.5v-11.3C875.7,538.4,890.7,523.4,909.2,523.4z"/>
					</defs>
					<use xlink:href="#SVGID_00000044162062863954888430000014940219438948060811_"  style="overflow:visible;fill:#E6C409;"/>
					<clipPath id="SVGID_00000008150097642224957890000008366949658425029036_">
						<use xlink:href="#SVGID_00000044162062863954888430000014940219438948060811_"  style="overflow:visible;"/>
					</clipPath>
					
						<rect x="875.7" y="523.4" style="clip-path:url(#SVGID_00000008150097642224957890000008366949658425029036_);fill:#E6C409;" width="67" height="78.3"/>
				</g>
			</g>
		</g>
	</g>
	<g class="st14">
		<g>
			<path id="SVGID_00000142890222499338112910000016457767241497382574_" class="st15" d="M827.4,523.4L827.4,523.4
				c18.5,0,33.5,15,33.5,33.5v11.3c0,18.5-15,33.5-33.5,33.5h0c-18.5,0-33.5-15-33.5-33.5v-11.3
				C793.9,538.4,808.9,523.4,827.4,523.4z"/>
		</g>
		<g>
			<g>
				<g>
					<defs>
						<path id="SVGID_00000031921194373461182940000015858910006049852064_" d="M827.4,523.4L827.4,523.4c18.5,0,33.5,15,33.5,33.5
							v11.3c0,18.5-15,33.5-33.5,33.5h0c-18.5,0-33.5-15-33.5-33.5v-11.3C793.9,538.4,808.9,523.4,827.4,523.4z"/>
					</defs>
					<use xlink:href="#SVGID_00000031921194373461182940000015858910006049852064_"  style="overflow:visible;fill:#E6C409;"/>
					<clipPath id="SVGID_00000005945755977410239130000003512637537909360817_">
						<use xlink:href="#SVGID_00000031921194373461182940000015858910006049852064_"  style="overflow:visible;"/>
					</clipPath>
					
						<rect x="793.9" y="523.4" style="clip-path:url(#SVGID_00000005945755977410239130000003512637537909360817_);fill:#E6C409;" width="67" height="78.3"/>
				</g>
			</g>
		</g>
	</g>
	<g class="st14">
		<g>
			<path id="SVGID_00000010283099952295048670000001754010516679544730_" class="st15" d="M909.2,617.5L909.2,617.5
				c18.5,0,33.5,15,33.5,33.5v11.3c0,18.5-15,33.5-33.5,33.5h0c-18.5,0-33.5-15-33.5-33.5V651C875.7,632.5,890.7,617.5,909.2,617.5z
				"/>
		</g>
		<g>
			<g>
				<g>
					<defs>
						<path id="SVGID_00000118373693599200071940000016249228316287980216_" d="M909.2,617.5L909.2,617.5c18.5,0,33.5,15,33.5,33.5
							v11.3c0,18.5-15,33.5-33.5,33.5h0c-18.5,0-33.5-15-33.5-33.5V651C875.7,632.5,890.7,617.5,909.2,617.5z"/>
					</defs>
					<use xlink:href="#SVGID_00000118373693599200071940000016249228316287980216_"  style="overflow:visible;fill:#E6C409;"/>
					<clipPath id="SVGID_00000167391254754353663490000013308598090976669595_">
						<use xlink:href="#SVGID_00000118373693599200071940000016249228316287980216_"  style="overflow:visible;"/>
					</clipPath>
					
						<rect x="875.7" y="617.5" style="clip-path:url(#SVGID_00000167391254754353663490000013308598090976669595_);fill:#E6C409;" width="67" height="78.3"/>
				</g>
			</g>
		</g>
	</g>
	<g class="st14">
		<g>
			<path id="SVGID_00000099644740783135036490000007520445377038292630_" class="st15" d="M827.4,617.5L827.4,617.5
				c18.5,0,33.5,15,33.5,33.5v11.3c0,18.5-15,33.5-33.5,33.5h0c-18.5,0-33.5-15-33.5-33.5V651C793.9,632.5,808.9,617.5,827.4,617.5z
				"/>
		</g>
		<g>
			<g>
				<g>
					<defs>
						<path id="SVGID_00000045580615168985325320000006107913995946995903_" d="M827.4,617.5L827.4,617.5c18.5,0,33.5,15,33.5,33.5
							v11.3c0,18.5-15,33.5-33.5,33.5h0c-18.5,0-33.5-15-33.5-33.5V651C793.9,632.5,808.9,617.5,827.4,617.5z"/>
					</defs>
					<use xlink:href="#SVGID_00000045580615168985325320000006107913995946995903_"  style="overflow:visible;fill:#E6C409;"/>
					<clipPath id="SVGID_00000151504279631493361260000016740619831263856825_">
						<use xlink:href="#SVGID_00000045580615168985325320000006107913995946995903_"  style="overflow:visible;"/>
					</clipPath>
					
						<rect x="793.9" y="617.5" style="clip-path:url(#SVGID_00000151504279631493361260000016740619831263856825_);fill:#E6C409;" width="67" height="78.3"/>
				</g>
			</g>
		</g>
	</g>
</g>
</svg>
